<?xml version="1.0" encoding="UTF-8" standalone="no"?>
<!-- Created with Inkscape (http://www.inkscape.org/) -->

<svg
   width="250"
   height="250"
   viewBox="0 0 66.14583 66.145835"
   version="1.1"
   id="svg1"
   xml:space="preserve"
   inkscape:version="1.3.2 (091e20e, 2023-11-25)"
   sodipodi:docname="logo_simple.svg"
   xmlns:inkscape="http://www.inkscape.org/namespaces/inkscape"
   xmlns:sodipodi="http://sodipodi.sourceforge.net/DTD/sodipodi-0.dtd"
   xmlns="http://www.w3.org/2000/svg"
   xmlns:svg="http://www.w3.org/2000/svg"><sodipodi:namedview
     id="namedview1"
     pagecolor="#ffffff"
     bordercolor="#000000"
     borderopacity="0.25"
     inkscape:showpageshadow="2"
     inkscape:pageopacity="0.0"
     inkscape:pagecheckerboard="0"
     inkscape:deskcolor="#d1d1d1"
     inkscape:document-units="px"
     inkscape:zoom="1.3304083"
     inkscape:cx="206.32763"
     inkscape:cy="263.82878"
     inkscape:window-width="1888"
     inkscape:window-height="1037"
     inkscape:window-x="1398"
     inkscape:window-y="0"
     inkscape:window-maximized="1"
     inkscape:current-layer="layer1" /><defs
     id="defs1" /><g
     inkscape:label="Capa 1"
     inkscape:groupmode="layer"
     id="layer1"><path
       style="fill:#000000"
       d="m 26.692835,62.824636 -1.88845,-0.618082 -1.88845,-0.618082 -1.497736,-0.745935 c -1.75226,-0.8727 -1.994511,-1.012913 -3.685473,-2.133128 L 16.456655,57.864047 15.060804,56.671083 13.664953,55.478118 12.728901,54.444885 C 7.9486172,49.168312 5.1475312,43.045305 4.3512862,36.131919 l -0.160174,-1.390705 0.07022,-2.64667 0.07022,-2.64667 0.275837,-1.562855 C 6.1347802,19.231021 10.853846,11.875752 17.86282,7.2247332 l 1.406454,-0.933295 1.823331,-0.879477 1.82333,-0.879477 1.312845,-0.456341 c 1.754296,-0.609789 3.691418,-1.071978 5.589765,-1.333695 l 1.562855,-0.215464 2.409402,0.06196 2.409401,0.06196 1.808052,0.346059 1.808051,0.346059 1.708373,0.571617 c 3.696275,1.236763 7.220058,3.279371 10.173837,5.897399 l 1.172142,1.0389058 1.048884,1.223712 c 4.248335,4.956444 6.788524,10.360702 7.673325,16.325013 l 0.211593,1.426321 0.07513,1.894746 0.07513,1.894747 -0.147662,1.8455 c -0.242052,3.025188 -0.688673,5.216071 -1.596146,7.829842 l -0.529505,1.52512 -0.875558,1.82333 c -1.535709,3.198079 -3.228863,5.666554 -5.601773,8.166908 l -1.323456,1.394536 -1.198072,0.958266 c -0.65894,0.527047 -1.784143,1.346171 -2.500452,1.820276 l -1.302379,0.862008 -1.562855,0.77459 c -2.690063,1.333263 -5.067762,2.109958 -8.074751,2.637687 -1.879026,0.426718 -3.815484,0.323479 -5.730469,0.365302 -1.622547,-0.16203 -3.220253,-0.48382 -4.818807,-0.794212 z m 7.237322,-1.891064 c 0.839164,-0.709364 0.929316,-0.801737 1.619048,-1.658921 l 0.626929,-0.779135 0.496001,-1.044196 0.496002,-1.044196 0.334726,-1.17039 c 0.450444,-1.575004 0.701761,-3.06247 0.847472,-5.015912 l 0.121434,-1.627974 -8.16e-4,-15.758788 -8.16e-4,-15.758789 -0.186127,-0.325595 -0.186127,-0.325595 -0.0046,-0.348161 -0.0046,-0.348162 0.324167,-0.385251 0.324167,-0.38525 0.359549,-0.06873 0.359549,-0.06873 0.390747,0.16334 c 0.214911,0.08984 0.467646,0.256068 0.561633,0.369402 l 0.170886,0.206062 -0.01201,17.745056 -0.01201,17.745056 -0.196168,1.507066 c -0.233772,1.795969 -0.688266,3.667103 -1.235249,5.085478 l -0.398845,1.034239 -0.650787,0.996906 c -0.768104,1.176617 -0.769775,1.171466 0.292995,0.903151 4.664706,-1.17769 8.835437,-3.457098 12.256772,-6.69863 l 1.139582,-1.079693 v -5.979259 -5.979258 l -2.897794,0.03505 -2.897793,0.03505 -0.08668,4.558327 -0.08668,4.558327 -0.264969,2.194417 -0.264969,2.194417 -0.197449,0.301346 -0.19745,0.301346 -0.410734,0.09021 -0.410735,0.09021 -0.342546,-0.256813 -0.342547,-0.256813 0.0061,-0.701188 c 0.0033,-0.385654 0.10798,-1.814723 0.232558,-3.175709 l 0.226506,-2.474521 -0.0372,-4.740072 -0.0372,-4.740072 -0.600914,-0.175184 -0.600914,-0.175185 -0.538668,-0.584386 -0.538668,-0.584385 -0.02171,-2.151836 c -0.01194,-1.183509 -0.02659,-2.254166 -0.03256,-2.379236 l -0.01085,-0.227401 0.65119,-0.352409 c 0.358154,-0.193824 1.1908,-0.531614 1.850323,-0.750644 l 1.199133,-0.398236 1.535863,-0.265198 1.535863,-0.265198 1.792967,-0.07924 1.792967,-0.07924 -0.05138,-6.980183 -0.05137,-6.980183 -0.09364,-0.611965 -0.09364,-0.611966 0.332259,-0.332259 0.332259,-0.332259 h 0.266396 c 0.146518,0 0.266396,-0.03612 0.266396,-0.08027 0,-0.152573 -1.472284,-1.681814 -2.655022,-2.757735 L 48.833282,10.617831 47.205308,9.5251052 45.577334,8.4323802 44.118598,7.7026712 C 41.961729,6.6237302 39.83232,5.8667772 37.535142,5.3624122 l -0.358154,-0.07863 v 0.07824 c 0,0.04303 0.198976,0.322532 0.442169,0.621111 1.248426,1.532748 2.072712,3.619141 2.360929,5.9758698 l 0.09104,0.744433 -0.395148,0.395148 -0.395148,0.395148 h -0.400732 -0.400732 l -0.257162,-0.257167 -0.257163,-0.257163 -0.07319,-0.361467 C 37.851604,12.419128 37.7037,11.758308 37.563181,11.149446 l -0.255489,-1.107023 -0.595194,-1.1923298 -0.595193,-1.19233 -0.696137,-0.769256 c -0.382875,-0.423091 -1.024128,-1.0223 -1.425007,-1.331575 l -0.72887,-0.56232 -0.522369,0.362002 c -0.287302,0.1991 -0.896387,0.758481 -1.353522,1.243068 l -0.831155,0.881068 -0.442587,0.759885 c -0.707142,1.214102 -1.178836,2.5803088 -1.46324,4.2381058 l -0.08282,0.482749 -0.338315,0.266119 -0.338316,0.266119 h -0.344171 -0.344172 l -0.274573,-0.192318 -0.274573,-0.192319 -0.0846,-0.337092 -0.0846,-0.337091 0.210925,-1.238226 0.210925,-1.2382258 0.316359,-0.930135 0.31636,-0.930134 0.528883,-0.890243 c 0.290886,-0.489633 0.708157,-1.094424 0.927269,-1.343979 l 0.398386,-0.453736 -0.07383,-0.07383 -0.07383,-0.07383 -1.657825,0.414959 c -2.24642,0.562286 -3.604348,1.050324 -5.457378,1.961377 l -1.562855,0.768387 -1.13181,0.752449 C 16.19797,11.315014 13.608082,13.896649 11.478106,17.096122 l -0.861025,1.29336 -0.9052698,1.817418 -0.905271,1.817418 -0.524769,1.562855 c -0.699712,2.083815 -1.147111,3.875649 -1.382067,5.535106 l -0.193618,1.367498 -0.0024,2.217461 -0.0024,2.217462 0.135996,1.103605 c 0.0748,0.606984 0.277487,1.807844 0.450422,2.668579 l 0.314427,1.564973 0.517094,1.560737 c 0.284401,0.858406 0.815138,2.234719 1.179414,3.058473 l 0.662322,1.497737 0.8121228,1.348086 c 0.446669,0.741448 1.269455,1.957252 1.828415,2.701788 l 1.016291,1.353702 1.458229,1.480012 1.45823,1.480013 1.321914,0.978547 c 3.043412,2.252888 5.970265,3.679614 9.699529,4.728141 0.627933,0.176551 1.267294,0.321001 1.420802,0.321001 h 0.279107 l -0.32517,-0.386443 C 27.764788,58.998363 26.794658,56.41423 26.264124,53.281413 l -0.198499,-1.172141 -0.04295,-17.517 -0.04295,-17.517001 -0.07967,-0.667212 -0.07967,-0.667211 0.390326,-0.436851 0.390326,-0.436851 h 0.53428 0.53428 l 0.333329,0.33333 0.33333,0.33333 -0.01958,0.445138 c -0.01077,0.244825 -0.04441,8.093359 -0.07476,17.441186 l -0.05519,16.996049 0.201491,1.562855 0.201491,1.562855 0.33317,1.30238 0.333169,1.302379 0.65604,1.364295 0.65604,1.364295 1.273022,1.273023 c 1.466131,1.46613 1.339776,1.418629 2.08898,0.785311 z M 22.035451,54.811709 21.830906,54.583793 21.630774,53.802365 c -0.553586,-2.161518 -1.003182,-4.667099 -1.320383,-7.358442 l -0.207222,-1.758212 -0.07838,-3.60174 -0.07838,-3.601739 -0.394754,-0.07895 c -0.217115,-0.04342 -0.647954,-0.227336 -0.957421,-0.408695 l -0.562667,-0.329745 -0.242161,-0.482773 -0.242161,-0.482774 -0.07458,-1.201944 -0.07458,-1.201944 0.524916,-0.449308 c 0.622117,-0.53251 1.619633,-1.024348 2.670015,-1.316488 l 0.760054,-0.211391 1.92101,-0.07376 1.921009,-0.07376 v 1.634223 1.634222 l -0.488392,0.07114 c -0.268616,0.03913 -0.810731,0.105986 -1.204701,0.148578 -0.39397,0.04259 -0.877478,0.1083 -1.074463,0.146016 l -0.358154,0.06857 v 1.287898 1.287898 l 1.530296,0.03669 1.530295,0.03669 0.03827,0.944225 0.03826,0.944225 -0.135943,0.01628 c -0.07477,0.009 -0.194551,0.03093 -0.266182,0.04884 -0.07163,0.01791 -0.716308,0.03988 -1.432617,0.04884 l -1.302379,0.01628 v 1.292018 c 0,3.286266 0.360241,6.550028 1.190968,10.790105 l 0.542728,2.770111 -0.30348,0.323039 -0.303479,0.323039 h -0.478064 -0.478065 z m -5.30142,-1.044714 -0.284936,-0.230727 -0.575359,-2.080996 C 14.988142,48.252197 14.40569,45.01221 14.129986,41.755357 l -0.126788,-1.497736 -0.01742,-10.543945 -0.01742,-10.543945 0.288042,-0.233243 0.288043,-0.233243 h 0.499261 0.499261 l 0.358468,0.308342 0.358469,0.308341 -0.0026,0.505646 c -0.0014,0.278105 -0.05689,0.769377 -0.123289,1.091716 l -0.12073,0.58607 0.07757,10.158558 0.07757,10.158558 0.2763,1.953569 c 0.364069,2.574123 1.321402,7.147825 1.928874,9.215276 l 0.06724,0.228859 -0.389771,0.389771 -0.389771,0.389771 H 17.34011 17.018926 Z M 8.1339312,32.985742 v -1.736767 l 1.9210098,-1.048992 c 1.056555,-0.576946 2.171667,-1.174663 2.478027,-1.32826 l 0.557018,-0.279268 -0.03607,1.91334 -0.03607,1.91334 -1.302379,0.541719 c -1.447381,0.602031 -2.5577298,1.149109 -3.0806958,1.517882 -0.190135,0.134076 -0.380608,0.243774 -0.423273,0.243774 h -0.07757 z m 8.8561788,-3.26126 v -1.221128 l 0.879106,-0.459115 c 0.483508,-0.252513 1.289355,-0.589644 1.790771,-0.749179 l 0.911666,-0.290064 2.311723,-0.06454 2.311723,-0.06454 v 1.253417 1.253416 h -1.746755 -1.746755 l -0.955682,0.183503 c -1.036398,0.199002 -2.52312,0.720214 -3.20973,1.125262 -0.236895,0.139749 -0.456671,0.25409 -0.488392,0.25409 -0.03172,0 -0.05768,-0.549508 -0.05768,-1.221128 z M 8.1339312,28.521159 v -1.370218 l 2.3921308,-1.163257 c 1.315671,-0.639791 2.429205,-1.163257 2.47452,-1.163257 h 0.08239 v 1.160533 1.160533 l -1.2047,0.648683 c -0.662586,0.356775 -1.77612,0.974599 -2.4745208,1.372941 l -1.26982,0.724259 z m 25.2617108,0.479022 c -0.324784,-0.05981 -1.329137,-0.320535 -2.231896,-0.579393 -0.902758,-0.258858 -1.765212,-0.47065 -1.916563,-0.47065 h -0.275184 v -1.041904 -1.041903 h 0.244894 c 0.134692,0 1.04823,0.231787 2.030083,0.515082 l 1.785188,0.515082 1.063068,0.0827 1.063068,0.0827 0.781428,-0.134051 c 0.429785,-0.07373 0.974507,-0.174756 1.210493,-0.224507 l 0.429065,-0.09046 -0.03835,1.021444 -0.03835,1.021445 -0.586071,0.17512 -0.586071,0.175121 -1.172141,0.05145 -1.172141,0.05146 z m 8.079197,-5.463828 V 19.35115 l 0.748868,-0.333292 c 0.411878,-0.183311 1.276332,-0.476163 1.92101,-0.650783 l 1.172141,-0.31749 2.504108,-0.25924 c 1.377259,-0.142583 2.651963,-0.259241 2.832675,-0.259241 h 0.328567 v 1.541856 c 0,0.84802 -0.03837,2.773888 -0.08526,4.279705 l -0.08527,2.73785 -2.617172,0.0726 -2.617172,0.0726 -1.041903,0.272314 c -1.105137,0.288842 -2.626421,0.855428 -2.897794,1.079254 l -0.162798,0.134274 z m 1.30238,1.027599 v -0.260476 h 0.130237 c 0.07163,0 0.130238,-0.05861 0.130238,-0.130238 V 24.043 h -0.188885 -0.188885 l -0.126845,-0.226659 -0.126845,-0.226659 -0.267637,0.308589 c -0.1472,0.169723 -0.248587,0.344979 -0.225303,0.389456 0.02328,0.04448 0.07883,0.18343 0.123447,0.308784 l 0.08111,0.227916 h 0.329682 0.329683 z m 5.990944,-0.500147 c 0,-0.126052 0.07033,-0.299514 0.156285,-0.385471 l 0.156286,-0.156286 h -0.146983 c -0.08084,0 -0.233861,-0.08688 -0.340046,-0.193063 l -0.193064,-0.193064 -0.265589,0.225623 -0.26559,0.225623 0.06781,0.325595 0.06781,0.325595 0.381544,0.02732 0.381543,0.02732 z m -2.723382,-0.793962 0.420888,0.299698 -0.08074,-0.497543 -0.08074,-0.497542 0.320321,-0.251965 c 0.176177,-0.138581 0.320322,-0.310513 0.320322,-0.382071 v -0.130106 l -0.293035,0.02374 c -0.16117,0.01306 -0.364789,0.01725 -0.452488,0.0093 L 46.039856,21.828934 45.83781,21.43822 C 45.726684,21.223349 45.579778,21.047528 45.511352,21.047528 H 45.38694 l -0.08765,0.358154 c -0.102154,0.417406 -0.260815,0.548758 -0.666177,0.551517 l -0.293035,0.002 v 0.119375 c 0,0.06566 0.149958,0.228613 0.333241,0.362125 l 0.333241,0.242749 -0.138816,0.365113 -0.138816,0.365113 0.08034,0.129988 0.08034,0.129989 0.367148,-0.35175 0.367148,-0.351751 z m -3.3978,-1.954153 V 21.0629 l 0.138722,-0.08573 0.138722,-0.08573 -0.224027,-0.247546 -0.224026,-0.247546 h -0.226356 -0.226357 l -0.07905,0.206009 c -0.04348,0.113305 -0.07905,0.320318 -0.07905,0.460029 v 0.254021 l 0.293035,0.117786 c 0.16117,0.06478 0.336991,0.121501 0.390714,0.126041 l 0.09768,0.0083 z m -0.390714,-0.593757 c 0,-0.03582 0.0293,-0.06512 0.06512,-0.06512 0.03581,0 0.06512,0.0293 0.06512,0.06512 0,0.03581 -0.0293,0.06512 -0.06512,0.06512 -0.03582,0 -0.06512,-0.0293 -0.06512,-0.06512 z m 6.643912,-0.119385 c 9.78e-4,-0.0776 0.03231,-0.258305 0.06963,-0.401567 l 0.06785,-0.260476 -0.322355,-0.146885 -0.322355,-0.146885 -0.300789,0.327548 -0.300788,0.327548 0.162797,0.05811 c 0.08954,0.03196 0.162797,0.131365 0.162797,0.220904 v 0.162797 h 0.390714 0.390714 z M 16.99011,26.645614 v -0.607235 l 0.358154,-0.168502 c 0.196985,-0.09268 0.709797,-0.309054 1.139582,-0.480839 l 0.781428,-0.312337 1.091522,-0.191256 1.091523,-0.191255 h 1.87139 1.87139 v 0.5641 0.5641 l -1.356039,-0.05896 -1.356038,-0.05896 -1.223101,0.144248 -1.223101,0.144248 -0.744648,0.256196 c -0.409556,0.140908 -1.095065,0.424381 -1.523354,0.62994 l -0.778708,0.373744 z m 15.498313,-2.849469 c -0.465601,-0.127512 -1.311789,-0.358561 -1.880419,-0.513444 -0.56863,-0.154882 -1.169353,-0.281604 -1.334939,-0.281604 H 28.971999 V 21.959193 20.91729 h 0.236724 c 0.130198,0 0.672314,0.118626 1.204701,0.263614 0.532387,0.144988 1.436833,0.385354 2.00988,0.534147 l 1.041903,0.270532 1.497736,-0.05928 1.497736,-0.05928 0.553512,-0.199162 0.553511,-0.199161 v 1.01087 1.010869 l -0.358155,0.14293 c -0.196984,0.07861 -0.621886,0.201502 -0.944225,0.273092 l -0.58607,0.130163 -1.172141,-0.0043 -1.172142,-0.0043 z M 10.868928,22.349907 10.608452,22.089431 V 21.70817 21.326909 l 0.343158,-0.269929 0.343159,-0.269928 h 0.285329 0.285328 l 0.283179,0.301429 0.283178,0.30143 v 0.327058 0.327058 l -0.30143,0.283178 -0.301429,0.283178 h -0.34976 -0.349761 z m 6.121182,-0.834969 v -1.095445 l 0.423273,-0.358913 0.423273,-0.358914 1.041904,-0.489371 1.041903,-0.489371 1.041904,-0.209995 1.041903,-0.209995 1.562855,0.03736 1.562855,0.03736 v 1.410372 1.410372 l -2.148926,0.04176 -2.148925,0.04176 -1.041904,0.276501 c -0.573047,0.152076 -1.414777,0.450981 -1.870512,0.664234 -0.455736,0.213253 -0.851333,0.387733 -0.879106,0.387733 -0.02777,0 -0.0505,-0.49295 -0.0505,-1.095445 z m 15.954145,-2.474832 c -0.429785,-0.09945 -1.389771,-0.362445 -2.133303,-0.584434 -0.743531,-0.221989 -1.461468,-0.403616 -1.595414,-0.403616 h -0.243539 v -1.041904 -1.041903 h 0.164588 c 0.09052,0 0.984282,0.225855 1.986129,0.501901 l 1.821539,0.501902 0.812956,0.09052 0.812956,0.09052 1.071261,-0.146676 c 0.589193,-0.08067 1.263639,-0.227057 1.498767,-0.3253 l 0.427507,-0.178623 v 1.095331 1.095331 l -0.683749,0.209003 -0.68375,0.209003 -1.23726,0.05488 -1.23726,0.05488 z m -16.86581,-1.205433 c -0.107447,-0.04194 -0.327223,-0.196218 -0.488393,-0.342848 l -0.293035,-0.266602 v -0.540666 -0.540666 l 0.299296,-0.281174 0.299297,-0.281175 0.405735,-0.08115 0.405736,-0.08115 0.390892,0.230906 0.390893,0.230906 0.141336,0.310198 c 0.07773,0.170609 0.141336,0.423731 0.141336,0.562492 v 0.252293 l -0.358155,0.393091 -0.358154,0.393092 -0.390714,0.05935 c -0.214892,0.03264 -0.478624,0.02504 -0.58607,-0.0169 z m 5.290173,-2.13004 c -0.206347,-0.06252 -0.51502,-0.245052 -0.685939,-0.405623 l -0.310764,-0.291947 -0.147378,-0.491905 -0.147379,-0.491905 0.218028,-0.557798 0.218027,-0.557797 0.342063,-0.248938 0.342063,-0.248938 0.598822,-0.05135 0.598823,-0.05135 0.416197,0.261508 c 0.510913,0.321021 0.776904,0.717994 0.881682,1.315847 l 0.07989,0.455833 -0.24778,0.455832 -0.24778,0.455833 -0.375985,0.215012 c -0.206791,0.118256 -0.551806,0.245689 -0.766698,0.283184 l -0.390714,0.06817 z m 22.385385,0.0347 c -0.143262,-0.03196 -0.448502,-0.199764 -0.678313,-0.372908 l -0.417836,-0.314808 -0.129377,-0.468563 -0.129376,-0.468562 0.07973,-0.408062 c 0.108853,-0.557087 0.396833,-0.971006 0.832208,-1.196147 l 0.364906,-0.1887 h 0.533887 0.533887 l 0.382041,0.197561 0.382042,0.197562 0.179284,0.35595 c 0.09861,0.195772 0.218517,0.519464 0.266469,0.719315 l 0.08719,0.363365 -0.252851,0.571613 -0.252852,0.571613 -0.369568,0.186003 c -0.444852,0.223893 -1.055636,0.334139 -1.411471,0.254768 z M 54.881782,48.742331 55.701388,47.4592 56.47984,45.831843 c 1.519056,-3.175589 2.394616,-6.138989 2.839824,-9.611601 l 0.133578,-1.041904 -7.56e-4,-2.299069 -7.55e-4,-2.299069 -0.200794,-1.336869 c -0.506524,-3.372376 -1.385309,-6.159336 -2.885183,-9.149999 -0.788207,-1.571638 -2.008572,-3.603697 -2.318893,-3.86124 l -0.199419,-0.165503 v 17.103162 17.103162 l 0.107367,-0.123726 c 0.05905,-0.06805 0.476189,-0.701134 0.926973,-1.406856 z M 51.763635,37.228433 v -1.531451 l -1.334939,0.08433 c -0.734216,0.04638 -2.023571,0.188589 -2.865234,0.316021 l -1.530295,0.231694 v 1.215431 1.21543 h 2.865234 2.865234 z"
       id="path1"
       sodipodi:nodetypes="cccsscccsscccsscccsscccccsscsscccsscsscsscssccsscccsscccccccccccsscccsscsssccccccccccccccccscccccccsscsscccccccccccssccccsscssscccccccsscccsscsscsscccccccccccccsscccsscsscccsscccsscsscsscccssscsscccccccccccsscccccccsssccsscccsscccccsscccccsssccccccccsscssccccccccssccccccccccscccssccccccccsscccsssccccsscccccccsssscccsscccssccssscccsscccsscccccccsccsscsscsscccssccccsscccccsssccccsscsscccccccsccccsscscccscsscssccccccccccccccccsscscccssssssscccccsscccsccsscccccccccccsscccsscccssscccccccsscccccccccccccccccccccccccccccccccccsssscssscccsscccsscccccccssscccccccccsscccssssscccccccccsscccsscssscccsscccccsscccssscsscccssscccssccsscccccc" /></g></svg>
