<?xml version="1.0" encoding="UTF-8" standalone="no"?>
<!-- Created with Inkscape (http://www.inkscape.org/) -->

<svg
   width="500"
   height="500"
   viewBox="0 0 132.29166 132.29167"
   version="1.1"
   id="svg1"
   xml:space="preserve"
   inkscape:version="1.3.2 (091e20e, 2023-11-25)"
   sodipodi:docname="logo.svg"
   xmlns:inkscape="http://www.inkscape.org/namespaces/inkscape"
   xmlns:sodipodi="http://sodipodi.sourceforge.net/DTD/sodipodi-0.dtd"
   xmlns="http://www.w3.org/2000/svg"
   xmlns:svg="http://www.w3.org/2000/svg"><sodipodi:namedview
     id="namedview1"
     pagecolor="#ffffff"
     bordercolor="#000000"
     borderopacity="0.25"
     inkscape:showpageshadow="2"
     inkscape:pageopacity="0.0"
     inkscape:pagecheckerboard="0"
     inkscape:deskcolor="#d1d1d1"
     inkscape:document-units="px"
     inkscape:zoom="1.8814815"
     inkscape:cx="247.94291"
     inkscape:cy="260.43307"
     inkscape:window-width="1888"
     inkscape:window-height="1037"
     inkscape:window-x="1398"
     inkscape:window-y="0"
     inkscape:window-maximized="1"
     inkscape:current-layer="layer1" /><defs
     id="defs1" /><g
     inkscape:label="Capa 1"
     inkscape:groupmode="layer"
     id="layer1"><path
       style="fill:#000000"
       d="m 63.475955,115.03569 c -4.409393,-0.45405 -6.836963,-0.84947 -9.507368,-1.54864 -7.109151,-1.86131 -13.636201,-5.10805 -19.340332,-9.62045 l -1.627974,-1.28785 -2.352792,-2.35999 -2.352792,-2.359993 -1.405924,-1.758212 -1.405925,-1.758212 -1.32995,-2.018688 C 20.80955,87.248897 18.932792,83.02131 17.515643,77.372568 L 16.93635,75.06351 16.667203,73.241989 c -0.14803,-1.001836 -0.327849,-2.524805 -0.399596,-3.384376 l -0.130449,-1.562855 v -2.344282 -2.344283 l 0.13155,-1.562855 c 0.434546,-5.162506 1.481297,-9.518077 3.505534,-14.586647 l 0.676172,-1.693093 1.048227,-2.017661 C 29.835861,27.698203 45.281897,17.67931 63.683863,16.382979 l 2.136375,-0.150497 2.259611,0.08211 c 2.538936,0.09226 3.973666,0.227101 6.531448,0.613845 l 1.758212,0.265847 2.148926,0.527858 2.148926,0.527859 2.083807,0.714454 c 2.600638,0.891655 5.244889,2.052871 7.797276,3.424155 l 1.970568,1.058698 2.083782,1.3903 c 1.14608,0.764666 2.816382,1.975637 3.711781,2.691048 l 1.627998,1.300747 1.960217,1.955201 1.96021,1.955201 1.21035,1.488644 c 4.04969,4.98083 6.91073,10.088013 8.86116,15.817835 l 0.65983,1.938404 v 0.496295 0.496294 l -0.31432,0.365417 -0.31432,0.365417 h -0.58367 -0.58367 l -0.27273,-0.246812 -0.27272,-0.246813 -0.28754,-0.892769 c -0.34062,-1.057579 -0.17323,-1.025265 -1.68242,-0.324788 -2.67558,1.241848 -6.01454,2.136393 -9.10312,2.43883 l -1.497733,0.146659 -0.731023,-0.07514 c -0.944372,-0.09707 -0.926143,-0.154134 -0.417291,1.306352 0.92208,2.64652 1.322101,4.666508 1.452902,7.336727 l 0.08613,1.758212 3.25595,0.03645 3.25595,0.03645 1.43261,-0.205681 c 1.73061,-0.248462 4.01247,-0.746219 5.228,-1.140414 l 0.89319,-0.289658 0.041,-0.28859 0.041,-0.288589 0.39223,-0.330041 0.39223,-0.33004 h 0.38928 c 0.21411,0 0.50203,0.06034 0.63984,0.134099 l 0.25057,0.134098 0.19671,0.380386 0.1967,0.380385 v 2.810287 2.810287 l -0.19849,1.890159 c -1.12162,10.680604 -5.29194,19.775755 -12.9656,28.276971 l -1.55034,1.717552 -1.47491,1.34304 c -7.744181,7.05188 -17.50129,11.48025 -28.221795,12.80876 l -1.627974,0.20175 -3.321067,0.0465 c -1.826587,0.0256 -3.555495,0.0224 -3.842019,-0.007 z m 7.228205,-2.79317 c 1.546278,-0.14131 4.678886,-0.59056 4.772789,-0.68446 0.02924,-0.0292 -0.123909,-1.38295 -0.340325,-3.00824 -0.216416,-1.6253 -0.40366,-3.22411 -0.416097,-3.55292 l -0.02261,-0.59784 0.24206,-0.17699 0.24206,-0.177 h 0.427938 0.427938 l 0.183909,0.29303 0.18391,0.29304 0.478471,2.73499 c 0.263159,1.50425 0.535652,2.95478 0.60554,3.22339 l 0.127069,0.4884 0.157778,-7.3e-4 c 0.08678,-4e-4 0.377554,-0.0618 0.64617,-0.13636 l 0.488392,-0.13563 -0.0019,-0.15668 c -0.0011,-0.0862 -0.09246,-0.53762 -0.203107,-1.00322 -0.496502,-2.08921 -1.484772,-6.55794 -1.455411,-6.58102 0.101114,-0.0795 3.766297,-1.25247 3.794062,-1.21422 0.0184,0.0253 0.15568,0.33912 0.305071,0.69727 0.28098,0.67363 1.812577,4.20206 2.445044,5.63279 l 0.35983,0.81399 h 0.162428 c 0.183223,0 1.105904,-0.3685 1.105904,-0.44168 0,-0.0643 -0.21615,-0.58403 -1.630912,-3.92129 -0.668061,-1.57588 -1.233733,-2.94389 -1.257049,-3.04002 l -0.04239,-0.17478 0.651189,-0.20518 c 0.358155,-0.11285 1.427203,-0.45201 2.375663,-0.75369 l 1.724472,-0.548509 1.160076,1.384309 c 0.638042,0.76136 1.649544,1.89741 2.247784,2.52455 l 1.087708,1.14025 0.227917,-6.7e-4 0.227916,-6.7e-4 -0.0058,-0.16279 c -0.0032,-0.0895 -0.709365,-1.0126 -1.569258,-2.05125 -2.099576,-2.53604 -3.89778,-4.834802 -5.179551,-6.62137 l -1.05965,-1.476971 0.0029,-0.34636 0.0029,-0.34636 0.241954,-0.314742 0.241954,-0.314741 h 0.42581 0.42581 l 0.468922,0.516489 c 0.257907,0.284069 1.582456,1.919886 2.943443,3.635149 2.486096,3.133246 4.962799,6.050336 5.136936,6.050336 0.35777,0 4.966554,-3.997632 6.606543,-5.730472 1.49962,-1.58452 4.60138,-5.360058 4.60138,-5.600902 0,-0.0514 -0.4542,-0.283713 -1.00934,-0.516253 -2.51224,-1.052342 -6.56,-2.872584 -8.824451,-3.96828 l -2.475349,-1.197742 -0.145605,-0.31957 -0.145606,-0.319569 0.146434,-0.450266 0.146433,-0.450265 0.339659,-0.11911 0.33966,-0.11911 2.655813,1.18253 c 2.68331,1.194773 4.697532,2.05975 8.249532,3.542642 l 1.94705,0.812857 0.28269,-0.35452 c 1.18981,-1.492168 4.02708,-7.354655 4.81778,-9.954712 l 0.17509,-0.575744 -0.0725,-0.117295 -0.0725,-0.117295 -7.45202,0.03134 -7.452017,0.03134 -0.153476,-0.09485 -0.153476,-0.09485 v -0.456708 -0.456709 l 0.149735,-0.284473 c 0.08235,-0.15646 0.21422,-0.328045 0.293036,-0.381298 l 0.1433,-0.09683 7.608328,0.0032 7.60833,0.0032 0.0903,-0.101758 c 0.0496,-0.05597 0.15074,-0.350839 0.22466,-0.65527 l 0.13438,-0.553511 h -7.67267 -7.672676 l 0.08667,-0.358155 c 0.04767,-0.196985 0.135245,-0.49002 0.194614,-0.651189 l 0.107944,-0.293036 0.686973,-0.0033 c 0.377835,-0.0018 3.806315,-3.6e-4 7.618855,0.0032 l 6.93189,0.0064 0.0609,-0.296223 c 0.0335,-0.162922 0.0973,-0.521624 0.14176,-0.797115 l 0.0809,-0.500893 -7.63656,0.09623 -7.63655,0.09623 0.08206,-0.441884 c 0.04513,-0.243036 0.182835,-1.262382 0.306007,-2.265214 l 0.223949,-1.823331 7.577124,0.04521 7.57712,0.04521 0.068,-0.30569 c 0.0478,-0.214759 0.17187,-2.458735 0.13575,-2.454922 -0.002,1.68e-4 -0.70488,0.147544 -1.56286,0.327502 l -1.55995,0.327197 -1.88845,0.125953 -1.88845,0.125954 -3.84202,-0.01273 -3.842024,-0.01273 -0.390713,-0.08327 -0.390714,-0.08327 -0.08135,-2.53864 -0.08135,-2.538639 -0.280392,-1.685461 c -0.431598,-2.594374 -1.161847,-5.250965 -1.905813,-6.933203 -0.17653,-0.399167 -0.320964,-0.7806 -0.320964,-0.84763 v -0.121871 l 1.85589,0.087 1.85589,0.087 1.30237,-0.14713 c 1.75021,-0.19772 2.99273,-0.453762 4.59089,-0.946021 l 1.33495,-0.411182 V 50.76083 50.657294 l -1.20471,-0.03745 -1.2047,-0.03745 -0.0389,-0.742017 -0.0388,-0.742017 2.99116,-0.03941 2.99117,-0.03941 0.0848,-0.08506 0.0848,-0.08506 -0.27221,-0.533572 -0.2722,-0.533573 h -8.26121 -8.261198 l -0.382245,-0.553511 c -0.210235,-0.304431 -0.71121,-0.953959 -1.113279,-1.443395 -0.402068,-0.489436 -0.731034,-0.968677 -0.731034,-1.064981 v -0.175097 l 0.461232,-0.380186 c 0.410602,-0.338453 5.629584,-3.502201 9.892674,-5.996946 0.85958,-0.503017 1.66536,-0.992465 1.79061,-1.087663 l 0.22776,-0.173087 -0.78913,-0.875209 -0.78915,-0.875209 -0.67587,0.437528 c -0.37174,0.240641 -2.19966,1.362735 -4.062062,2.493542 -1.862403,1.130808 -4.312458,2.661075 -5.444567,3.400594 -1.13211,0.739519 -2.084876,1.344579 -2.117259,1.344579 -0.03238,0 -0.651021,-0.587195 -1.374752,-1.304878 l -1.315873,-1.304878 0.361265,-0.290536 c 0.788515,-0.634139 4.415185,-3.088055 7.74226,-5.238651 0.752124,-0.486167 1.876038,-1.212726 2.497587,-1.614575 0.621549,-0.401849 1.228829,-0.790523 1.349511,-0.86372 l 0.219422,-0.133086 -1.657549,-1.456734 -1.657549,-1.456733 -0.733865,0.466319 c -3.597154,2.285736 -7.124533,4.934296 -9.802524,7.360301 -0.618279,0.560103 -1.195916,1.018368 -1.283637,1.018368 -0.130993,0 -0.833477,-0.480672 -1.354748,-0.926981 l -0.115867,-0.09921 0.357163,-0.431131 c 0.19644,-0.237122 0.865753,-0.958595 1.487363,-1.603273 0.62161,-0.644678 2.007508,-2.135951 3.079772,-3.31394 1.072264,-1.177989 2.52099,-2.75113 3.219391,-3.495869 0.698401,-0.744739 1.26982,-1.39279 1.26982,-1.440114 0,-0.04732 -0.35531,-0.308145 -0.789577,-0.579603 l -0.789578,-0.493558 -1.782621,0.662249 -1.782622,0.66225 -2.083807,1.030624 -2.083807,1.030624 -0.997448,0.754624 c -0.548597,0.415043 -1.473667,1.205491 -2.055712,1.756552 l -1.058263,1.001928 0.460831,1.323934 0.460832,1.323934 -0.163332,-0.06616 c -0.08983,-0.03639 -0.939136,-0.394391 -1.887341,-0.795566 -0.948205,-0.401176 -1.783356,-0.72941 -1.85589,-0.72941 -0.296133,0 0.16179,-1.371546 1.060976,-3.17778 1.489763,-2.992551 3.428664,-5.138626 6.360942,-7.04062 0.537232,-0.34847 1.027474,-0.677699 1.089428,-0.73162 l 0.112643,-0.09804 -0.390202,-0.201781 C 81.248693,20.904 73.953063,19.290186 69.141305,19.045555 l -1.627974,-0.08277 0.03741,6.107081 c 0.04013,6.551116 0.04347,6.487328 -0.363034,6.92366 l -0.27059,0.290444 h -0.430574 -0.430574 l -0.248102,-0.27419 -0.248101,-0.274189 0.03806,-4.056222 c 0.02094,-2.230921 -7.93e-4,-5.104671 -0.04828,-6.386109 l -0.08635,-2.329888 -1.384332,0.08909 c -11.185257,0.719876 -21.707747,5.134922 -29.906437,12.5482 -1.268727,1.147186 -3.060592,2.947167 -3.060592,3.074455 0,0.02562 0.911379,0.67964 2.025286,1.453369 l 2.025286,1.406778 0.12364,0.231023 c 0.068,0.127063 0.12364,0.314795 0.12364,0.417182 v 0.18616 l -0.343355,0.343354 -0.343354,0.343355 H 34.51877 c -0.203606,0 -2.415256,-1.294689 -3.823062,-2.238 -0.407947,-0.273348 -0.818857,-0.496997 -0.913133,-0.496997 h -0.171412 l -1.756744,2.36097 c -0.966209,1.298533 -1.774752,2.407485 -1.796762,2.464339 -0.02201,0.05685 0.417542,-0.127556 0.976784,-0.409798 l 1.016803,-0.513167 0.701526,-0.127841 c 0.385838,-0.07031 1.003551,-0.127841 1.372694,-0.127841 h 0.67117 l 0.720141,0.187573 c 1.22253,0.318429 4.113826,1.699488 5.572731,2.661877 l 0.182083,0.120114 -0.505713,0.436228 c -0.278142,0.239925 -1.15981,1.054903 -1.959263,1.811064 -0.799452,0.75616 -1.77443,1.595835 -2.166617,1.865944 l -0.713067,0.491108 -0.895939,0.326711 -0.895939,0.326711 -0.916626,0.07066 -0.916625,0.07066 -0.676021,-0.14498 c -0.929482,-0.199339 -1.738582,-0.60082 -2.420509,-1.201077 l -0.575575,-0.506641 -0.434781,-0.677547 -0.43478,-0.677546 -0.551505,1.163911 c -2.041758,4.308984 -3.453376,9.274042 -4.144795,14.578418 l -0.203717,1.562855 -0.08132,2.129665 -0.08132,2.129666 0.509559,-0.259958 c 1.329204,-0.678109 3.539265,-1.184647 6.369693,-1.459911 2.749117,-0.267356 4.381327,-0.685664 6.840441,-1.75309 0.748863,-0.325058 1.36224,-0.591055 1.363059,-0.591104 8.19e-4,-4.8e-5 -0.01868,1.186641 -0.04332,2.637087 l -0.04481,2.637175 0.149265,1.432848 c 0.0821,0.788067 0.263047,1.955812 0.402115,2.594989 0.139067,0.639177 0.238581,1.175133 0.221142,1.191013 -0.07446,0.0678 -1.162438,0.504225 -2.310871,0.926966 l -1.23726,0.455437 -3.255948,0.842178 -3.255949,0.842179 -1.868033,0.634106 c -1.027418,0.348758 -1.90056,0.666633 -1.940315,0.706389 l -0.07228,0.07228 0.21634,0.876671 c 0.118987,0.482169 0.275258,0.935589 0.347269,1.007599 l 0.130929,0.130929 1.853523,-0.605095 c 2.098232,-0.684983 3.5881,-1.129592 8.23518,-2.457554 1.790772,-0.511736 3.353092,-0.958601 3.471824,-0.993034 l 0.215875,-0.06261 0.272517,0.272517 0.272517,0.272517 v 0.391988 0.391988 L 35.292196,77.04 l -0.247725,0.212109 -3.236139,1.035918 c -1.779877,0.569755 -4.779421,1.534669 -6.665653,2.144252 l -3.429513,1.108333 0.08472,0.344802 c 0.616565,2.509376 5.054673,10.10786 7.328681,12.547434 l 0.327161,0.350981 1.056968,-1.049422 1.056969,-1.049421 0.779225,-0.520307 c 0.771273,-0.514997 3.003052,-1.680834 3.532457,-1.845286 l 0.274307,-0.08521 0.311764,0.457775 0.311764,0.457775 0.1654,8.9e-4 c 0.224516,0.0012 2.231212,-1.014566 3.591061,-1.817768 1.291979,-0.763114 1.249563,-0.754824 1.654857,-0.323409 l 0.312325,0.332455 -0.191944,0.128214 c -0.693398,0.463174 -2.543539,1.520094 -3.514945,2.007964 -0.632642,0.317732 -1.183252,0.631079 -1.223577,0.696327 l -0.07332,0.118632 0.282935,0.373462 c 0.155614,0.205404 0.299105,0.395654 0.318868,0.422776 0.01976,0.02712 0.316545,-0.125561 0.659515,-0.339297 0.342971,-0.213736 1.151046,-0.668268 1.795724,-1.010071 0.644678,-0.341802 1.51209,-0.859015 1.927583,-1.14936 l 0.755441,-0.527902 0.397836,0.397836 0.397836,0.397836 -1.153277,0.711389 c -0.634303,0.391264 -1.838618,1.057955 -2.676255,1.481536 l -1.522978,0.770147 -0.0073,0.140095 c -0.004,0.07705 0.13862,0.277197 0.316989,0.444765 l 0.324306,0.304671 0.359443,-0.163105 c 0.804516,-0.365065 3.542118,-1.897192 4.364268,-2.442507 l 0.879116,-0.583099 0.387153,0.387152 0.387152,0.387153 -1.526744,0.908159 c -0.839709,0.499487 -2.15677,1.242736 -2.926802,1.651664 -1.526622,0.810717 -1.534441,0.819863 -1.107022,1.29489 l 0.293035,0.325675 2.187963,-1.17026 c 1.20338,-0.643644 2.572406,-1.433461 3.042282,-1.75515 l 0.854319,-0.58489 0.213666,0.162624 c 0.117516,0.08944 0.236595,0.177717 0.264619,0.196165 0.02802,0.01845 -0.191758,0.348139 -0.488406,0.73265 l -0.539359,0.699109 -4.13504,2.051612 -4.13504,2.051613 -1.204701,0.798116 c -1.36712,0.905718 -1.323409,0.839038 -0.846547,1.291448 l 0.358155,0.33979 0.965293,-0.63806 c 0.951325,-0.62883 3.759946,-2.058038 7.627505,-3.881373 l 0.127333,-0.06003 -0.192452,0.264748 c -0.105849,0.145611 -0.436365,0.612975 -0.734481,1.038586 l -0.542028,0.773838 -0.563853,0.168935 c -0.310119,0.09291 -1.384866,0.588905 -2.388325,1.102206 l -1.824472,0.93327 -0.683749,0.5125 c -0.376062,0.28188 -0.683749,0.54764 -0.683749,0.59058 0,0.12907 0.653385,0.68747 1.800779,1.53901 l 1.084471,0.80484 0.105546,-0.0652 c 0.09933,-0.0614 1.062627,-1.36646 3.46056,-4.688362 0.56755,-0.786239 1.200369,-1.62139 1.406263,-1.85589 l 0.374353,-0.426365 h 0.439339 0.439339 l 0.212716,0.324646 0.212716,0.324646 -0.0825,0.32871 -0.0825,0.32871 -1.775352,2.635155 c -0.976444,1.44933 -2.000707,2.94033 -2.276139,3.31334 -0.650875,0.88144 -0.686541,0.80215 0.703915,1.56495 4.857636,2.6649 8.56373,4.02644 14.463471,5.31356 0.559023,0.12196 1.038759,0.19939 1.06608,0.17207 0.05568,-0.0557 1.144115,-5.97188 1.752909,-9.52798 0.487706,-2.8488 0.536977,-2.954476 1.377511,-2.954476 h 0.307681 l 0.337186,0.293035 0.337186,0.293035 -0.275304,2.651386 c -0.151416,1.45826 -0.497058,4.18349 -0.768093,6.05606 l -0.49279,3.40468 0.08201,0.0932 c 0.04511,0.0512 0.637881,0.14583 1.317275,0.21021 l 1.235263,0.11704 2.669877,0.0173 2.669878,0.0173 z m -17.321644,-2.81964 c -2.956262,-1.01821 -4.803163,-1.70807 -5.762211,-2.15233 l -1.138764,-0.5275 0.247386,-0.40477 c 0.826216,-1.35182 3.59644,-7.263435 4.248198,-9.065584 0.09067,-0.250708 0.228392,-0.618108 0.306049,-0.816444 l 0.141194,-0.360611 1.141872,0.572124 c 1.359296,0.681063 3.293293,1.417889 4.733134,1.803259 l 1.042849,0.279116 -0.05289,0.140384 c -0.02909,0.07721 -0.352858,1.083847 -0.719484,2.236966 -0.827121,2.60148 -1.77744,5.12529 -2.653536,7.04712 l -0.670438,1.47069 -0.138643,-0.0103 c -0.07625,-0.006 -0.402376,-0.10112 -0.724715,-0.21214 z m 13.100728,-0.10568 c -0.280025,-0.10647 -0.711233,-0.34773 -0.95824,-0.53613 l -0.449105,-0.34255 -0.310307,-0.66643 -0.310308,-0.66643 0.0016,-0.71631 0.0016,-0.71631 0.265699,-0.58607 c 0.146135,-0.32234 0.393928,-0.72569 0.550651,-0.89634 l 0.284952,-0.31027 0.651189,-0.30709 0.65119,-0.30709 0.733996,-0.001 0.733996,-0.001 0.698621,0.36381 0.698621,0.36381 0.412186,0.68634 0.412186,0.68633 0.08791,0.63922 0.08791,0.63921 -0.208087,0.62649 -0.208088,0.62649 -0.373463,0.45308 -0.373464,0.45307 -0.632809,0.31604 -0.632809,0.31604 -0.653238,0.0386 -0.653238,0.0386 z m 10.342098,-7.64925 c 0,-0.0403 -0.722921,-2.573127 -0.837207,-2.933211 l -0.08241,-0.259667 0.359966,-0.09035 c 0.197981,-0.04969 0.900068,-0.320225 1.560192,-0.601188 0.660125,-0.280963 1.247171,-0.510141 1.304547,-0.509285 0.118282,0.0018 1.406168,3.102981 1.323111,3.186041 -0.161467,0.16146 -3.628194,1.31538 -3.628194,1.20766 z m 5.832198,-2.347346 c 0.733547,-1.040612 2.030014,-2.699333 2.108214,-2.697284 0.03807,9.98e-4 0.402514,0.455203 0.809872,1.009344 l 0.740652,1.00753 -0.08946,0.08535 c -0.09688,0.09243 -3.75274,1.282146 -3.93988,1.282146 h -0.113737 z m 11.646377,-0.08056 -0.689615,-0.238197 -0.482526,-0.388394 c -0.26539,-0.213617 -0.672494,-0.635873 -0.904677,-0.938345 l -0.42215,-0.549951 -0.212348,-0.730451 -0.212348,-0.73045 0.07239,-0.701371 0.07239,-0.701371 0.386204,-0.825299 0.386204,-0.8253 0.661632,-0.522989 0.661631,-0.522989 0.663704,-0.220448 0.663705,-0.220447 0.934377,0.04998 0.934377,0.04998 0.633404,0.319819 0.633404,0.319819 0.62545,0.684341 0.62545,0.684342 0.228025,0.685252 0.228025,0.685252 -0.01189,0.781428 -0.01188,0.781428 -0.263974,0.614683 -0.263973,0.614684 -0.543065,0.589155 c -0.88891,0.964354 -2.058972,1.503796 -3.246475,1.496747 l -0.455833,-0.0027 z M 81.013332,97.915557 c -0.226099,-0.577628 -0.41109,-1.130446 -0.41109,-1.228484 v -0.178252 l 0.254119,-0.08065 c 0.139766,-0.04436 0.707766,-0.376798 1.262224,-0.738752 0.554457,-0.361954 1.07814,-0.684973 1.16374,-0.71782 l 0.155635,-0.05972 0.277846,0.390198 0.277845,0.390198 -1.191426,1.636761 c -0.655285,0.900218 -1.233361,1.636761 -1.284614,1.636761 -0.05125,0 -0.278179,-0.472605 -0.504279,-1.050232 z M 63.80155,96.486093 c -0.537232,-0.06541 -1.621462,-0.244112 -2.409402,-0.397107 l -1.432617,-0.278172 -1.88845,-0.618082 -1.88845,-0.618082 -1.497736,-0.745935 c -1.75226,-0.8727 -1.994511,-1.012913 -3.685473,-2.133128 L 49.723351,90.850225 48.3275,89.657261 46.931649,88.464296 45.995597,87.431063 C 41.215313,82.15449 38.414227,76.031483 37.617982,69.118097 l -0.160174,-1.390705 0.07022,-2.64667 0.07022,-2.64667 0.275837,-1.562855 C 39.401476,52.217199 44.120542,44.86193 51.129516,40.210911 l 1.406454,-0.933295 1.823331,-0.879477 1.82333,-0.879477 1.312845,-0.456341 c 1.754296,-0.609789 3.691418,-1.071978 5.589765,-1.333695 l 1.562855,-0.215464 2.409402,0.06196 2.409401,0.06196 1.808052,0.346059 1.808051,0.346059 1.708373,0.571617 c 3.696275,1.236763 7.220058,3.279371 10.173837,5.897399 l 1.172142,1.038906 1.048884,1.223712 c 4.248335,4.956444 6.788524,10.360702 7.673325,16.325013 l 0.211593,1.426321 0.07513,1.894746 0.07513,1.894747 -0.147662,1.8455 c -0.242052,3.025188 -0.688673,5.216071 -1.596146,7.829842 l -0.529505,1.52512 -0.875558,1.82333 c -1.535709,3.198079 -3.228863,5.666554 -5.601773,8.166908 l -1.323456,1.394536 -1.198072,0.958266 c -0.65894,0.527047 -1.784143,1.346171 -2.500452,1.820276 l -1.302379,0.862008 -1.562855,0.77459 c -2.690063,1.333263 -5.067762,2.109958 -8.074751,2.637687 l -1.562855,0.274282 -2.083807,0.04551 -2.083807,0.04551 z m 3.395303,-2.566343 c 0.839164,-0.709364 0.929316,-0.801737 1.619048,-1.658921 l 0.626929,-0.779135 0.496001,-1.044196 0.496002,-1.044196 0.334726,-1.17039 c 0.450444,-1.575004 0.701761,-3.06247 0.847472,-5.015912 l 0.121434,-1.627974 -8.16e-4,-15.758788 -8.16e-4,-15.758789 -0.186127,-0.325595 -0.186127,-0.325595 -0.0046,-0.348161 -0.0046,-0.348162 0.324167,-0.385251 0.324167,-0.38525 0.359549,-0.06873 0.359549,-0.06873 0.390747,0.16334 c 0.214911,0.08984 0.467646,0.256068 0.561633,0.369402 l 0.170886,0.206062 -0.01201,17.745056 -0.01201,17.745056 -0.196168,1.507066 c -0.233772,1.795969 -0.688266,3.667103 -1.235249,5.085478 l -0.398845,1.034239 -0.650787,0.996906 c -0.768104,1.176617 -0.769775,1.171466 0.292995,0.903151 4.664706,-1.17769 8.835437,-3.457098 12.256772,-6.69863 l 1.139582,-1.079693 v -5.979259 -5.979258 l -2.897794,0.03505 -2.897793,0.03505 -0.08668,4.558327 -0.08668,4.558327 -0.264969,2.194417 -0.264969,2.194417 -0.197449,0.301346 -0.19745,0.301346 -0.410734,0.09021 -0.410735,0.09021 -0.342546,-0.256813 -0.342547,-0.256813 0.0061,-0.701188 c 0.0033,-0.385654 0.10798,-1.814723 0.232558,-3.175709 l 0.226506,-2.474521 -0.0372,-4.740072 -0.0372,-4.740072 -0.600914,-0.175184 -0.600914,-0.175185 -0.538668,-0.584386 -0.538668,-0.584385 -0.02171,-2.151836 c -0.01194,-1.183509 -0.02659,-2.254166 -0.03256,-2.379236 l -0.01085,-0.227401 0.65119,-0.352409 c 0.358154,-0.193824 1.1908,-0.531614 1.850323,-0.750644 l 1.199133,-0.398236 1.535863,-0.265198 1.535863,-0.265198 1.792967,-0.07924 1.792967,-0.07924 -0.05138,-6.980183 -0.05137,-6.980183 -0.09364,-0.611965 -0.09364,-0.611966 0.332259,-0.332259 0.332259,-0.332259 h 0.266396 c 0.146518,0 0.266396,-0.03612 0.266396,-0.08027 0,-0.152573 -1.472284,-1.681814 -2.655022,-2.757735 L 82.099978,43.604009 80.472004,42.511283 78.84403,41.418558 77.385294,40.688849 C 75.228425,39.609908 73.099016,38.852955 70.801838,38.34859 l -0.358154,-0.07863 v 0.07824 c 0,0.04303 0.198976,0.322532 0.442169,0.621111 1.248426,1.532748 2.072712,3.619141 2.360929,5.97587 l 0.09104,0.744433 -0.395148,0.395148 -0.395148,0.395148 H 72.146794 71.746062 L 71.4889,46.222743 71.231737,45.96558 71.158552,45.604113 C 71.1183,45.405306 70.970396,44.744486 70.829877,44.135624 l -0.255489,-1.107023 -0.595194,-1.19233 -0.595193,-1.19233 -0.696137,-0.769256 c -0.382875,-0.423091 -1.024128,-1.0223 -1.425007,-1.331575 l -0.72887,-0.56232 -0.522369,0.362002 c -0.287302,0.1991 -0.896387,0.758481 -1.353522,1.243068 l -0.831155,0.881068 -0.442587,0.759885 c -0.707142,1.214102 -1.178836,2.580309 -1.46324,4.238106 l -0.08282,0.482749 -0.338315,0.266119 -0.338316,0.266119 H 60.817492 60.47332 l -0.274573,-0.192318 -0.274573,-0.192319 -0.0846,-0.337092 -0.0846,-0.337091 0.210925,-1.238226 0.210925,-1.238226 0.316359,-0.930135 0.31636,-0.930134 0.528883,-0.890243 c 0.290886,-0.489633 0.708157,-1.094424 0.927269,-1.343979 l 0.398386,-0.453736 -0.07383,-0.07383 -0.07383,-0.07383 -1.657825,0.414959 c -2.24642,0.562286 -3.604348,1.050324 -5.457378,1.961377 l -1.562855,0.768387 -1.13181,0.752449 c -3.241887,2.155273 -5.831775,4.736908 -7.961751,7.936381 l -0.861025,1.29336 -0.90527,1.817418 -0.905271,1.817418 -0.524769,1.562855 C 40.848755,58.657166 40.401356,60.449 40.1664,62.108457 l -0.193618,1.367498 -0.0024,2.217461 -0.0024,2.217462 0.135996,1.103605 c 0.0748,0.606984 0.277487,1.807844 0.450422,2.668579 l 0.314427,1.564973 0.517094,1.560737 c 0.284401,0.858406 0.815138,2.234719 1.179414,3.058473 l 0.662322,1.497737 0.812123,1.348086 c 0.446669,0.741448 1.269455,1.957252 1.828415,2.701788 l 1.016291,1.353702 1.458229,1.480012 1.45823,1.480013 1.321914,0.978547 c 3.043412,2.252888 5.970265,3.679614 9.699529,4.728141 0.627933,0.176551 1.267294,0.321001 1.420802,0.321001 h 0.279107 l -0.32517,-0.386443 C 61.031484,91.984541 60.061354,89.400408 59.53082,86.267591 l -0.198499,-1.172141 -0.04295,-17.517 -0.04295,-17.517001 -0.07967,-0.667212 -0.07967,-0.667211 0.390326,-0.436851 0.390326,-0.436851 h 0.53428 0.53428 l 0.333329,0.33333 0.33333,0.33333 -0.01958,0.445138 c -0.01077,0.244825 -0.04441,8.093359 -0.07476,17.441186 l -0.05519,16.996049 0.201491,1.562855 0.201491,1.562855 0.33317,1.30238 0.333169,1.302379 0.65604,1.364295 0.65604,1.364295 1.273022,1.273023 c 1.466131,1.46613 1.339776,1.418629 2.08898,0.785311 z M 55.302147,87.797887 55.097602,87.569971 54.89747,86.788543 c -0.553586,-2.161518 -1.003182,-4.667099 -1.320383,-7.358442 l -0.207222,-1.758212 -0.07838,-3.60174 -0.07838,-3.601739 -0.394754,-0.07895 C 52.601236,70.34604 52.170397,70.162124 51.86093,69.980765 l -0.562667,-0.329745 -0.242161,-0.482773 -0.242161,-0.482774 -0.07458,-1.201944 -0.07458,-1.201944 0.524916,-0.449308 c 0.622117,-0.53251 1.619633,-1.024348 2.670015,-1.316488 l 0.760054,-0.211391 1.92101,-0.07376 1.921009,-0.07376 v 1.634223 1.634222 l -0.488392,0.07114 c -0.268616,0.03913 -0.810731,0.105986 -1.204701,0.148578 -0.39397,0.04259 -0.877478,0.1083 -1.074463,0.146016 l -0.358154,0.06857 v 1.287898 1.287898 l 1.530296,0.03669 1.530295,0.03669 0.03827,0.944225 0.03826,0.944225 -0.135943,0.01628 c -0.07477,0.009 -0.194551,0.03093 -0.266182,0.04884 -0.07163,0.01791 -0.716308,0.03988 -1.432617,0.04884 l -1.302379,0.01628 v 1.292018 c 0,3.286266 0.360241,6.550028 1.190968,10.790105 l 0.542728,2.770111 -0.30348,0.323039 -0.303479,0.323039 h -0.478064 -0.478065 z m -5.30142,-1.044714 -0.284936,-0.230727 -0.575359,-2.080996 c -0.885594,-3.203075 -1.468046,-6.443062 -1.74375,-9.699915 l -0.126788,-1.497736 -0.01742,-10.543945 -0.01742,-10.543945 0.288042,-0.233243 0.288043,-0.233243 h 0.499261 0.499261 l 0.358468,0.308342 0.358469,0.308341 -0.0026,0.505646 c -0.0014,0.278105 -0.05689,0.769377 -0.123289,1.091716 l -0.12073,0.58607 0.07757,10.158558 0.07757,10.158558 0.2763,1.953569 c 0.364069,2.574123 1.321402,7.147825 1.928874,9.215276 l 0.06724,0.228859 -0.389771,0.389771 -0.389771,0.389771 h -0.321185 -0.321184 z m -8.6001,-20.781253 v -1.736767 l 1.92101,-1.048992 c 1.056555,-0.576946 2.171667,-1.174663 2.478027,-1.32826 l 0.557018,-0.279268 -0.03607,1.91334 -0.03607,1.91334 -1.302379,0.541719 c -1.447381,0.602031 -2.55773,1.149109 -3.080696,1.517882 -0.190135,0.134076 -0.380608,0.243774 -0.423273,0.243774 h -0.07757 z m 8.856179,-3.26126 v -1.221128 l 0.879106,-0.459115 c 0.483508,-0.252513 1.289355,-0.589644 1.790771,-0.749179 l 0.911666,-0.290064 2.311723,-0.06454 2.311723,-0.06454 v 1.253417 1.253416 H 56.71504 54.968285 l -0.955682,0.183503 c -1.036398,0.199002 -2.52312,0.720214 -3.20973,1.125262 -0.236895,0.139749 -0.456671,0.25409 -0.488392,0.25409 -0.03172,0 -0.05768,-0.549508 -0.05768,-1.221128 z m -8.856179,-1.203323 v -1.370218 l 2.392131,-1.163257 c 1.315671,-0.639791 2.429205,-1.163257 2.47452,-1.163257 h 0.08239 v 1.160533 1.160533 l -1.2047,0.648683 c -0.662586,0.356775 -1.77612,0.974599 -2.474521,1.372941 l -1.26982,0.724259 z m 25.261711,0.479022 c -0.324784,-0.05981 -1.329137,-0.320535 -2.231896,-0.579393 -0.902758,-0.258858 -1.765212,-0.47065 -1.916563,-0.47065 h -0.275184 v -1.041904 -1.041903 h 0.244894 c 0.134692,0 1.04823,0.231787 2.030083,0.515082 l 1.785188,0.515082 1.063068,0.0827 1.063068,0.0827 0.781428,-0.134051 c 0.429785,-0.07373 0.974507,-0.174756 1.210493,-0.224507 l 0.429065,-0.09046 -0.03835,1.021444 -0.03835,1.021445 -0.586071,0.17512 -0.586071,0.175121 -1.172141,0.05145 -1.172141,0.05146 z m 8.079197,-5.463828 v -4.185203 l 0.748868,-0.333292 c 0.411878,-0.183311 1.276332,-0.476163 1.92101,-0.650783 l 1.172141,-0.31749 2.504108,-0.25924 c 1.377259,-0.142583 2.651963,-0.259241 2.832675,-0.259241 h 0.328567 v 1.541856 c 0,0.84802 -0.03837,2.773888 -0.08526,4.279705 l -0.08527,2.73785 -2.617172,0.0726 -2.617172,0.0726 -1.041903,0.272314 c -1.105137,0.288842 -2.626421,0.855428 -2.897794,1.079254 l -0.162798,0.134274 z m 1.30238,1.027599 v -0.260476 h 0.130237 c 0.07163,0 0.130238,-0.05861 0.130238,-0.130238 V 57.029178 H 76.115505 75.92662 L 75.799775,56.802519 75.67293,56.57586 75.405293,56.884449 c -0.1472,0.169723 -0.248587,0.344979 -0.225303,0.389456 0.02328,0.04448 0.07883,0.18343 0.123447,0.308784 l 0.08111,0.227916 h 0.329682 0.329683 z m 5.990944,-0.500147 c 0,-0.126052 0.07033,-0.299514 0.156285,-0.385471 l 0.156286,-0.156286 h -0.146983 c -0.08084,0 -0.233861,-0.08688 -0.340046,-0.193063 l -0.193064,-0.193064 -0.265589,0.225623 -0.26559,0.225623 0.06781,0.325595 0.06781,0.325595 0.381544,0.02732 0.381543,0.02732 z m -2.723382,-0.793962 0.420888,0.299698 -0.08074,-0.497543 -0.08074,-0.497542 0.320321,-0.251965 c 0.176177,-0.138581 0.320322,-0.310513 0.320322,-0.382071 v -0.130106 l -0.293035,0.02374 c -0.16117,0.01306 -0.364789,0.01725 -0.452488,0.0093 l -0.159453,-0.01442 -0.202046,-0.390714 C 78.99338,54.209527 78.846474,54.033706 78.778048,54.033706 h -0.124412 l -0.08765,0.358154 c -0.102154,0.417406 -0.260815,0.548758 -0.666177,0.551517 l -0.293035,0.002 v 0.119375 c 0,0.06566 0.149958,0.228613 0.333241,0.362125 l 0.333241,0.242749 -0.138816,0.365113 -0.138816,0.365113 0.08034,0.129988 0.08034,0.129989 0.367148,-0.35175 0.367148,-0.351751 z m -3.3978,-1.954153 v -0.25279 l 0.138722,-0.08573 0.138722,-0.08573 -0.224027,-0.247546 -0.224026,-0.247546 h -0.226356 -0.226357 l -0.07905,0.206009 c -0.04348,0.113305 -0.07905,0.320318 -0.07905,0.460029 v 0.254021 l 0.293035,0.117786 c 0.16117,0.06478 0.336991,0.121501 0.390714,0.126041 l 0.09768,0.0083 z m -0.390714,-0.593757 c 0,-0.03582 0.0293,-0.06512 0.06512,-0.06512 0.03581,0 0.06512,0.0293 0.06512,0.06512 0,0.03581 -0.0293,0.06512 -0.06512,0.06512 -0.03582,0 -0.06512,-0.0293 -0.06512,-0.06512 z m 6.643912,-0.119385 c 9.78e-4,-0.0776 0.03231,-0.258305 0.06963,-0.401567 l 0.06785,-0.260476 -0.322355,-0.146885 -0.322355,-0.146885 -0.300789,0.327548 -0.300788,0.327548 0.162797,0.05811 c 0.08954,0.03196 0.162797,0.131365 0.162797,0.220904 v 0.162797 h 0.390714 0.390714 z m -31.910069,6.043066 v -0.607235 l 0.358154,-0.168502 c 0.196985,-0.09268 0.709797,-0.309054 1.139582,-0.480839 l 0.781428,-0.312337 1.091522,-0.191256 1.091523,-0.191255 h 1.87139 1.87139 v 0.5641 0.5641 l -1.356039,-0.05896 -1.356038,-0.05896 -1.223101,0.144248 -1.223101,0.144248 -0.744648,0.256196 c -0.409556,0.140908 -1.095065,0.424381 -1.523354,0.62994 l -0.778708,0.373744 z M 65.755119,56.782323 C 65.289518,56.654811 64.44333,56.423762 63.8747,56.268879 63.30607,56.113997 62.705347,55.987275 62.539761,55.987275 h -0.301066 v -1.041904 -1.041903 h 0.236724 c 0.130198,0 0.672314,0.118626 1.204701,0.263614 0.532387,0.144988 1.436833,0.385354 2.00988,0.534147 l 1.041903,0.270532 1.497736,-0.05928 1.497736,-0.05928 0.553512,-0.199162 0.553511,-0.199161 v 1.01087 1.010869 l -0.358155,0.14293 c -0.196984,0.07861 -0.621886,0.201502 -0.944225,0.273092 l -0.58607,0.130163 -1.172141,-0.0043 -1.172142,-0.0043 z M 44.135624,55.336085 43.875148,55.075609 v -0.381261 -0.381261 l 0.343158,-0.269929 0.343159,-0.269928 h 0.285329 0.285328 l 0.283179,0.301429 0.283178,0.30143 v 0.327058 0.327058 l -0.30143,0.283178 -0.301429,0.283178 h -0.34976 -0.349761 z m 6.121182,-0.834969 v -1.095445 l 0.423273,-0.358913 0.423273,-0.358914 1.041904,-0.489371 1.041903,-0.489371 1.041904,-0.209995 1.041903,-0.209995 1.562855,0.03736 1.562855,0.03736 v 1.410372 1.410372 l -2.148926,0.04176 -2.148925,0.04176 -1.041904,0.276501 c -0.573047,0.152076 -1.414777,0.450981 -1.870512,0.664234 -0.455736,0.213253 -0.851333,0.387733 -0.879106,0.387733 -0.02777,0 -0.0505,-0.49295 -0.0505,-1.095445 z M 66.210951,52.026284 C 65.781166,51.926834 64.82118,51.663839 64.077648,51.44185 63.334117,51.219861 62.61618,51.038234 62.482234,51.038234 H 62.238695 V 49.99633 48.954427 h 0.164588 c 0.09052,0 0.984282,0.225855 1.986129,0.501901 l 1.821539,0.501902 0.812956,0.09052 0.812956,0.09052 1.071261,-0.146676 c 0.589193,-0.08067 1.263639,-0.227057 1.498767,-0.3253 l 0.427507,-0.178623 v 1.095331 1.095331 l -0.683749,0.209003 -0.68375,0.209003 -1.23726,0.05488 -1.23726,0.05488 z m -16.86581,-1.205433 c -0.107447,-0.04194 -0.327223,-0.196218 -0.488393,-0.342848 l -0.293035,-0.266602 v -0.540666 -0.540666 l 0.299296,-0.281174 0.299297,-0.281175 0.405735,-0.08115 0.405736,-0.08115 0.390892,0.230906 0.390893,0.230906 0.141336,0.310198 c 0.07773,0.170609 0.141336,0.423731 0.141336,0.562492 v 0.252293 l -0.358155,0.393091 -0.358154,0.393092 -0.390714,0.05935 c -0.214892,0.03264 -0.478624,0.02504 -0.58607,-0.0169 z m 5.290173,-2.13004 c -0.206347,-0.06252 -0.51502,-0.245052 -0.685939,-0.405623 l -0.310764,-0.291947 -0.147378,-0.491905 -0.147379,-0.491905 0.218028,-0.557798 0.218027,-0.557797 0.342063,-0.248938 0.342063,-0.248938 0.598822,-0.05135 0.598823,-0.05135 0.416197,0.261508 c 0.510913,0.321021 0.776904,0.717994 0.881682,1.315847 l 0.07989,0.455833 -0.24778,0.455832 -0.24778,0.455833 -0.375985,0.215012 c -0.206791,0.118256 -0.551806,0.245689 -0.766698,0.283184 l -0.390714,0.06817 z m 22.385385,0.0347 c -0.143262,-0.03196 -0.448502,-0.199764 -0.678313,-0.372908 l -0.417836,-0.314808 -0.129377,-0.468563 -0.129376,-0.468562 0.07973,-0.408062 c 0.108853,-0.557087 0.396833,-0.971006 0.832208,-1.196147 l 0.364906,-0.1887 h 0.533887 0.533887 l 0.382041,0.197561 0.382042,0.197562 0.179284,0.35595 c 0.09861,0.195772 0.218517,0.519464 0.266469,0.719315 l 0.08719,0.363365 -0.252851,0.571613 -0.252852,0.571613 -0.369568,0.186003 c -0.444852,0.223893 -1.055636,0.334139 -1.411471,0.254768 z m 11.127779,33.002998 0.819606,-1.283131 0.778452,-1.627357 c 1.519056,-3.175589 2.394616,-6.138989 2.839824,-9.611601 l 0.133578,-1.041904 -7.56e-4,-2.299069 -7.55e-4,-2.299069 -0.200794,-1.336869 C 92.011109,58.857133 91.132324,56.070173 89.63245,53.07951 88.844243,51.507872 87.623878,49.475813 87.313557,49.21827 l -0.199419,-0.165503 v 17.103162 17.103162 l 0.107367,-0.123726 c 0.05905,-0.06805 0.476189,-0.701134 0.926973,-1.406856 z M 85.030331,70.214611 V 68.68316 l -1.334939,0.08433 c -0.734216,0.04638 -2.023571,0.188589 -2.865234,0.316021 l -1.530295,0.231694 v 1.215431 1.21543 h 2.865234 2.865234 z M 28.728439,90.402645 c -0.932352,-1.421717 -2.356003,-3.825323 -3.267475,-5.516606 l -0.604175,-1.121076 0.502988,-0.332862 c 1.155699,-0.764806 10.187429,-4.65319 10.808179,-4.65319 0.05607,0 0.211059,0.307687 0.34443,0.683749 0.61845,1.743816 2.039765,4.429241 2.967212,5.606236 0.214266,0.271919 0.367653,0.516321 0.340858,0.543116 -0.02679,0.02679 -1.153808,0.580124 -2.504474,1.229623 -3.693408,1.776058 -5.773934,3.048067 -7.227268,4.418664 -0.240375,0.226692 -0.457407,0.412166 -0.482291,0.412166 -0.02489,0 -0.419978,-0.571419 -0.877984,-1.26982 z m 4.727675,-3.720701 c 0,-0.09445 -0.09246,-0.483079 -0.205476,-0.863631 l -0.205476,-0.691912 0.335714,-0.74807 c 0.184643,-0.411438 0.335714,-0.789361 0.335714,-0.839828 v -0.09176 l -0.831318,0.08903 -0.831319,0.08903 -0.786774,-0.435843 c -0.956524,-0.529876 -0.96263,-0.52495 -0.715032,0.576907 l 0.198745,0.884455 -0.468044,0.704927 -0.468045,0.704926 0.134512,0.08313 0.134512,0.08313 0.741918,-0.08508 0.741919,-0.08508 0.846547,0.392713 c 0.972025,0.450924 1.041903,0.466547 1.041903,0.232949 z m 70.489826,0.258344 c -0.2336,-0.08472 -0.63539,-0.322133 -0.89288,-0.527587 l -0.46816,-0.373552 -0.24384,-0.536968 -0.24384,-0.536969 v -0.651189 -0.65119 l 0.23717,-0.522069 0.23717,-0.522069 0.46511,-0.408369 0.46511,-0.408369 0.4808,-0.15868 0.4808,-0.15868 0.76831,0.05557 0.7683,0.05557 0.54283,0.382354 0.54284,0.382355 0.30304,0.573995 0.30303,0.573996 v 0.700007 0.700007 l -0.17983,0.419091 c -0.0989,0.230499 -0.37729,0.618414 -0.61863,0.862033 l -0.4388,0.442943 -0.52095,0.237946 -0.52095,0.237945 -0.52096,-0.007 c -0.28652,-0.0039 -0.71207,-0.07636 -0.94567,-0.161081 z M 23.102199,62.450572 c -1.379762,-0.302113 -3.100445,-1.127178 -3.269496,-1.567719 l -0.06622,-0.172577 0.328691,-1.944653 c 0.180781,-1.069559 0.394323,-2.250681 0.474539,-2.624716 l 0.145848,-0.680062 0.643821,0.472608 0.643821,0.472608 0.623815,0.237032 0.623816,0.237031 1.082302,0.148188 1.082302,0.148187 0.862071,-0.08739 c 2.14761,-0.217709 3.259936,-0.562638 6.787895,-2.104907 1.396802,-0.61062 2.599612,-1.13406 2.672911,-1.163199 l 0.13327,-0.05298 -0.624324,1.923613 c -0.343378,1.057987 -0.723685,2.404416 -0.845126,2.992065 l -0.220802,1.068453 -1.609381,0.727445 c -2.214025,1.000745 -3.362702,1.446405 -4.54997,1.765285 l -1.012641,0.271977 -1.562855,0.05241 -1.562855,0.05241 z m 72.839915,-10.998395 -0.22356,-0.0887 -0.596208,-1.139406 -0.596208,-1.139405 h 4.108275 4.108277 v 1.158207 1.158207 l -0.20601,0.07905 -0.20601,0.07905 -3.082498,-0.0092 -3.082498,-0.0092 z M 42.068175,40.15298 c -1.092084,-0.863552 -5.547186,-4.231225 -7.255114,-5.48424 -0.506651,-0.371703 -0.988358,-0.756763 -1.07046,-0.85569 l -0.149276,-0.179866 1.005857,-0.56121 c 0.553222,-0.308666 1.562625,-0.929124 2.243118,-1.378796 l 1.23726,-0.817585 1.350071,-1.21682 c 2.255082,-2.032507 2.898796,-2.563344 4.119922,-3.397489 1.205489,-0.823462 3.706026,-2.1823 4.015876,-2.1823 h 0.174295 l 1.544949,2.897793 c 0.849721,1.593787 1.885981,3.536528 2.3028,4.317202 0.416818,0.780675 0.735585,1.441674 0.708371,1.468889 -0.02721,0.02721 -0.535025,0.284284 -1.128469,0.571267 -0.593444,0.286983 -1.49513,0.798124 -2.003747,1.13587 l -0.924759,0.614083 -1.156537,1.107022 c -1.307146,1.251184 -2.353919,2.491192 -3.270786,3.874579 -0.344192,0.519323 -0.633421,0.944225 -0.64273,0.944225 -0.0093,0 -0.504598,-0.385621 -1.100641,-0.856934 z m 2.791898,-5.542227 0.591373,-0.277978 0.311296,-0.408129 0.311295,-0.40813 0.157471,-0.588764 0.15747,-0.588764 -0.08795,-0.468786 -0.08794,-0.468786 -0.292963,-0.434728 -0.292964,-0.434729 -0.439845,-0.296411 c -0.241914,-0.163027 -0.672465,-0.35905 -0.956779,-0.435608 l -0.516934,-0.139195 -0.654602,0.157036 -0.654602,0.157037 -0.494276,0.446549 -0.494277,0.446549 -0.220076,0.576262 -0.220077,0.576262 0.06789,0.602302 0.06789,0.602302 0.372495,0.52881 0.372495,0.528809 0.573995,0.303034 0.573996,0.303034 h 0.632125 0.632124 z m 10.115949,-1.699732 c -0.213846,-0.380692 -0.740023,-1.366148 -1.169282,-2.189903 -0.42926,-0.823755 -1.469069,-2.80465 -2.310688,-4.401989 -0.841619,-1.597339 -1.508703,-2.918216 -1.48241,-2.935282 1.630853,-1.058509 9.42821,-2.839657 14.178622,-3.238818 l 0.455832,-0.0383 0.03748,5.01416 c 0.02062,2.757788 0.005,5.195367 -0.0346,5.416843 l -0.07208,0.402683 -1.788733,0.60179 -1.788732,0.60179 -2.616397,0.65212 c -1.439018,0.358665 -2.707253,0.686984 -2.8183,0.729597 l -0.201904,0.07748 z m 0.949408,-2.976629 0.08376,-0.135535 0.249516,0.07919 0.249515,0.07919 v -0.2586 c 0,-0.142231 0.03557,-0.351305 0.07905,-0.46461 l 0.07905,-0.206008 h -0.278497 -0.278498 l -0.07496,-0.195357 c -0.04123,-0.107446 -0.127302,-0.195357 -0.191269,-0.195357 h -0.116304 v 0.20755 0.207549 l -0.260476,0.06812 c -0.312559,0.08174 -0.329901,0.208701 -0.05919,0.433369 l 0.201284,0.167051 -0.06696,0.174491 -0.06696,0.174491 h 0.183583 c 0.100971,0 0.221278,-0.06099 0.267349,-0.135536 z m 6.958205,-1.103708 0.266725,0.08466 v -0.258601 c 0,-0.14223 0.03557,-0.351304 0.07905,-0.464609 l 0.07905,-0.206009 h -0.202819 -0.202819 l -0.126273,-0.225636 -0.126272,-0.225636 -0.345333,0.37262 -0.345334,0.372621 0.13954,0.139539 c 0.07675,0.07675 0.139539,0.252208 0.139539,0.389914 v 0.250376 l 0.189107,-0.156945 0.189107,-0.156945 z m -3.654976,-1.421265 c 0.680213,0.272167 0.730362,0.222495 0.459308,-0.454935 l -0.217345,-0.543199 0.340069,-0.477954 0.340069,-0.477953 -0.09953,-0.09954 -0.09954,-0.09954 -0.513396,0.141756 -0.513397,0.141755 -0.160759,-0.242024 c -0.08842,-0.133114 -0.242332,-0.353541 -0.342031,-0.489838 l -0.181272,-0.247814 -0.149995,0.0927 -0.149996,0.0927 v 0.36708 0.367081 l -0.183735,0.152487 c -0.101055,0.08387 -0.39409,0.186623 -0.65119,0.228345 l -0.467454,0.07586 v 0.164175 0.164175 l 0.530462,0.212249 0.530461,0.212248 -0.02108,0.61588 c -0.01159,0.338734 -0.01587,0.671729 -0.0095,0.739989 l 0.01157,0.12411 0.500985,-0.489199 0.500985,-0.489198 z m -4.243776,-2.764134 -0.05957,-0.155234 0.144849,-0.270653 0.144849,-0.270652 h -0.158986 c -0.08744,0 -0.294629,-0.12743 -0.460415,-0.283178 l -0.301429,-0.283179 v 0.202174 0.202174 l -0.265092,0.178683 -0.265092,0.178683 0.162307,0.34074 0.162308,0.34074 0.477919,-0.01253 0.47792,-0.01253 z m 6.613274,-1.347729 h 0.249824 v -0.252789 c 0,-0.139035 0.05861,-0.289011 0.130238,-0.333282 0.07163,-0.04427 0.130238,-0.135639 0.130238,-0.203043 v -0.122551 h -0.188885 -0.188886 l -0.139867,-0.227917 -0.139867,-0.227916 -0.208085,0.293035 -0.208084,0.293036 H 60.855311 60.67584 v 0.122551 c 0,0.0674 0.05861,0.158773 0.130238,0.203043 l 0.130238,0.08049 v 0.266723 0.266724 l 0.206008,-0.07905 c 0.113305,-0.04348 0.31843,-0.07905 0.455833,-0.07905 z m 22.682562,9.182893 C 84.119141,32.36369 83.899364,32.098808 83.792327,31.891821 L 83.597714,31.51548 v -0.468768 -0.468767 l 0.197561,-0.382042 0.197562,-0.382042 0.382041,-0.197561 0.382042,-0.197562 h 0.588197 0.588197 l 0.443596,0.443597 0.443596,0.443596 0.06667,0.43551 0.06667,0.435509 -0.163548,0.390714 c -0.08995,0.214893 -0.317169,0.532372 -0.504927,0.705511 l -0.341378,0.314796 -0.684751,0.05238 -0.684751,0.05238 z M 74.405704,27.876562 73.874516,27.628131 73.599132,27.278037 C 73.44767,27.085485 73.255275,26.720468 73.171586,26.466888 l -0.152162,-0.461054 0.08541,-0.534138 0.08541,-0.534138 0.261257,-0.422722 0.261257,-0.422723 0.416708,-0.251192 c 0.22919,-0.138156 0.640135,-0.290969 0.913212,-0.339583 l 0.496504,-0.08839 0.480281,0.153371 0.48028,0.153371 0.369782,0.342444 c 0.20338,0.188345 0.459222,0.51378 0.568538,0.723191 l 0.198758,0.380747 v 0.623394 0.623394 l -0.249191,0.426673 -0.249191,0.426674 -0.532561,0.374298 -0.532561,0.374298 -0.568215,0.05509 -0.568214,0.0551 z M 33.977066,99.364189 c 0,-0.0674 -0.05861,-0.158773 -0.130238,-0.203043 l -0.130238,-0.08049 v 0.203043 0.203044 h 0.130238 c 0.07163,0 0.130238,-0.05515 0.130238,-0.122552 z m 1.407915,-0.621145 c -0.02223,-0.112843 -0.141366,-0.268741 -0.264749,-0.346439 l -0.224332,-0.14127 -0.122938,0.12731 c -0.06761,0.07002 -0.142487,0.244525 -0.166382,0.387787 l -0.04344,0.260476 0.162798,-0.03256 0.162797,-0.03256 v 0.13482 0.13482 l 0.268333,-0.143607 0.268333,-0.143608 z m -2.521712,-0.936296 0.195271,-0.377614 -0.183816,-0.152554 -0.183817,-0.152554 -0.196793,0.380556 -0.196793,0.380556 0.149611,0.149612 c 0.199828,0.199827 0.193229,0.203441 0.416337,-0.228002 z m 4.301745,-0.119784 c -0.02327,-0.120401 -0.04679,-0.262867 -0.05227,-0.31659 -0.01423,-0.139443 -0.430418,-0.117089 -0.661155,0.03551 l -0.195357,0.129202 0.317562,0.246019 0.317561,0.246018 0.157986,-0.06062 0.157985,-0.06062 z m -2.924498,-0.67015 c 0.265226,0.167719 0.277005,0.164557 0.680775,-0.182704 l 0.358154,-0.308029 v -0.270196 c 0,-0.148608 -0.05236,-0.302553 -0.116345,-0.342101 l -0.116345,-0.07191 -0.07942,0.31644 -0.07942,0.31644 -0.487983,-0.07494 c -0.26839,-0.04121 -0.55666,-0.128785 -0.640599,-0.1946 l -0.152616,-0.119663 -0.08751,-0.517959 -0.08751,-0.517959 0.158393,-0.190852 0.158394,-0.190853 h 0.423939 0.423938 l 0.162132,0.195357 c 0.08917,0.107447 0.242867,0.195357 0.341542,0.195357 h 0.17941 v -0.507018 -0.507017 l -0.200287,-0.07686 -0.200287,-0.07686 -0.07412,0.193161 c -0.04077,0.106239 -0.12646,0.193162 -0.190427,0.193162 H 34.49802 v -0.260476 -0.260476 h -0.110052 c -0.06053,0 -0.219135,0.120534 -0.352456,0.267853 l -0.242404,0.267853 -0.286379,-0.07188 -0.286378,-0.07188 0.065,0.248575 0.065,0.248575 -0.278393,0.376547 -0.278393,0.376547 0.08473,0.220805 c 0.0466,0.121443 0.143337,0.220805 0.214968,0.220805 h 0.130238 l -0.07774,0.202589 -0.07774,0.202589 0.319687,0.319687 0.319687,0.319687 -0.08261,0.226592 -0.08261,0.226592 0.252975,-0.221328 0.252975,-0.221327 z m 4.678682,0.06885 0.155222,-0.187032 -0.137571,-0.257054 -0.137571,-0.257053 -0.257914,0.06745 c -0.141853,0.03709 -0.325617,0.149023 -0.408365,0.248728 l -0.150452,0.181283 h 0.276423 0.276423 v 0.195357 0.195357 h 0.114291 c 0.06286,0 0.184141,-0.08416 0.269514,-0.187032 z m -6.523631,-0.402102 0.07622,-0.07622 -0.179954,-0.111217 -0.179954,-0.111218 -0.272107,0.100438 -0.272107,0.100438 -0.04081,0.206494 -0.04081,0.206494 0.416656,-0.119495 c 0.229161,-0.06572 0.450955,-0.153794 0.492875,-0.195715 z m 4.186257,-0.192294 c 0,-0.07163 -0.05861,-0.130238 -0.130238,-0.130238 -0.07163,0 -0.130238,0.05861 -0.130238,0.130238 0,0.07163 0.05861,0.130238 0.130238,0.130238 0.07163,0 0.130238,-0.05861 0.130238,-0.130238 z m 0.716309,-0.846546 v -0.260476 l -0.358155,-0.04121 -0.358154,-0.04121 v 0.342896 0.342896 l 0.358154,-0.04121 0.358155,-0.04121 z m -5.795588,-0.06512 v -0.260476 h -0.390714 -0.390713 v 0.173651 c 0,0.250968 0.132457,0.347301 0.477539,0.347301 h 0.303888 z m 5.397447,-1.163935 0.2283,-0.252269 -0.08556,-0.138444 C 36.995669,93.94881 36.871263,93.88651 36.766271,93.88651 h -0.190894 l -0.127014,0.334073 c -0.163006,0.428737 -0.161002,0.447354 0.04816,0.447354 0.09634,0 0.277907,-0.113521 0.403472,-0.252269 z m -5.006733,-0.329219 v -0.190775 l -0.251914,-0.13482 c -0.138552,-0.07415 -0.343677,-0.13482 -0.455833,-0.13482 h -0.203918 v 0.249623 0.249622 l 0.162797,0.06569 c 0.08954,0.03613 0.294663,0.07032 0.455833,0.07597 l 0.293035,0.01028 z M 36.572371,93.0224 C 36.720832,92.833662 36.8423,92.599234 36.8423,92.501448 v -0.177793 h -0.136158 c -0.07489,0 -0.280011,0.143854 -0.455833,0.319675 l -0.319674,0.319675 v 0.201276 0.201277 h 0.185904 0.185904 z m -3.193063,0.0011 0.0813,-0.211864 -0.148432,-0.17885 -0.148432,-0.178849 h -0.244529 -0.244528 v 0.152542 c 0,0.418 0.573906,0.757659 0.704621,0.417021 z m 1.864107,-1.263723 c -0.02453,-0.07358 -0.142053,-0.195254 -0.261172,-0.270393 l -0.21658,-0.136615 -0.152625,0.152624 -0.152624,0.152625 0.172309,0.415992 0.17231,0.415992 0.241487,-0.298224 0.241488,-0.298224 z M 25.034296,73.416554 c 0.09836,-0.376115 0.0059,-0.49835 -0.376928,-0.49835 h -0.317909 v 0.303889 c 0,0.361852 0.09623,0.477539 0.397231,0.477539 h 0.223579 z m 1.753409,-0.444627 0.03885,-0.271873 -0.189908,-0.157609 -0.189908,-0.15761 -0.207091,0.295664 c -0.1139,0.162614 -0.207091,0.374426 -0.207091,0.470692 v 0.175029 l 0.358155,-0.04121 0.358154,-0.04121 z m -3.229673,-0.316211 v -0.230595 l -0.211864,-0.0813 -0.211865,-0.0813 -0.178849,0.148432 c -0.24031,0.199439 -0.225183,0.379537 0.0487,0.579803 l 0.227547,0.166387 0.163166,-0.135416 c 0.08974,-0.07448 0.163167,-0.239184 0.163167,-0.366011 z m 77.621798,-0.26615 v -0.252789 h -0.18142 -0.18142 l -0.0835,0.217504 -0.0835,0.217504 0.16099,0.0995 c 0.21971,0.135791 0.36878,0.02192 0.36878,-0.281716 z m 1.53807,0.170484 -0.0439,-0.227916 h -0.25691 -0.2569 l -0.0439,0.227916 -0.0439,0.227917 h 0.34469 0.3447 z m 2.92401,-0.311139 -0.12067,-0.120673 -0.21713,0.08332 -0.21714,0.08332 v 0.172365 0.172364 l 0.29304,0.04162 0.29303,0.04162 0.0448,-0.176632 0.0448,-0.176631 z m -5.919487,0.180901 -0.04389,-0.227916 h -0.191789 -0.19179 l -0.04389,0.227916 -0.04389,0.227917 h 0.279575 0.279575 z m 4.452887,-0.09768 v -0.325595 h -0.10419 c -0.16231,0 -0.41677,0.294214 -0.41677,0.48188 v 0.16931 h 0.26048 0.26048 z m -76.108924,-0.534931 0.08523,-0.339574 -0.180425,-0.114141 c -0.227432,-0.14388 -0.386367,-0.09471 -0.554281,0.171494 l -0.131991,0.209247 0.171192,0.206274 c 0.09416,0.113451 0.25081,0.206274 0.348121,0.206274 h 0.176929 z m -5.318176,-0.506973 -0.03673,-0.260475 -0.284223,-0.04046 -0.284223,-0.04046 -0.138792,0.259335 -0.138792,0.259334 0.201505,0.201505 0.201504,0.201504 0.258236,-0.1599 0.258235,-0.159901 z m 76.347817,0.3984 c 0,-0.103218 -0.06251,-0.226301 -0.138903,-0.273517 l -0.138903,-0.08585 -0.07254,0.07254 -0.07254,0.07254 0.07712,0.200974 c 0.04242,0.110536 0.137567,0.200974 0.211446,0.200974 h 0.134326 z m 1.357833,-0.02946 0.0833,-0.217135 -0.12316,-0.123159 -0.12316,-0.12316 -0.14158,0.0875 -0.14159,0.08751 v 0.252789 0.25279 h 0.18143 0.18142 z m 1.44581,0.08119 0.084,-0.135943 -0.15621,-0.188218 -0.15621,-0.188218 -0.11548,0.07137 c -0.0635,0.03925 -0.11548,0.185126 -0.11548,0.32416 v 0.25279 h 0.18767 c 0.10322,0 0.22548,-0.06117 0.27169,-0.135943 z m 3.03256,-0.158588 0.0436,-0.226421 h -0.25609 -0.25609 l -0.0701,0.182624 -0.0701,0.182625 0.0823,0.08235 c 0.0453,0.04529 0.17245,0.065 0.28257,0.0438 l 0.20021,-0.03856 z m 1.41338,-0.152547 c -0.10136,-0.264155 -0.333,-0.261818 -0.43516,0.0044 l -0.08,0.208501 0.18069,0.11167 0.18069,0.111671 0.11606,-0.116061 0.11606,-0.11606 z m -2.98423,0.154043 c -0.0298,-0.08954 -0.15191,-0.181747 -0.27133,-0.204907 l -0.21712,-0.04211 v 0.204907 0.204906 h 0.27133 0.27132 z m 10.36794,-0.325595 c 0.0444,-0.268616 0.0814,-0.590955 0.0822,-0.716309 l 0.001,-0.227916 h -3.38618 -3.38619 v 0.716309 0.716308 h 3.30403 3.30402 z m -14.006609,-0.587566 0.0436,-0.226421 H 99.49629 99.226265 v 0.270025 0.270026 l 0.22642,-0.0436 0.226421,-0.0436 z m 1.514979,0.176046 0.0732,-0.118485 -0.0763,-0.198887 -0.0763,-0.198886 -0.18458,0.07083 -0.18458,0.07083 v 0.246542 0.246542 h 0.18767 c 0.10322,0 0.22062,-0.05332 0.2609,-0.118485 z m 1.35768,-0.0563 0.14506,-0.17478 -0.0857,-0.0857 c -0.0471,-0.04713 -0.19314,-0.0857 -0.32446,-0.0857 h -0.23877 v 0.17365 c 0,0.355884 0.27387,0.449655 0.50387,0.172521 z m 1.51482,-0.0857 v -0.19179 l -0.22792,-0.04389 -0.22792,-0.04389 v 0.279575 0.279575 l 0.22792,-0.04389 0.22792,-0.04389 z m 1.47472,-0.04335 0.0421,-0.217124 h -0.27002 -0.27003 v 0.17365 c 0,0.398886 0.42187,0.435718 0.49794,0.04347 z m -76.971508,-0.44504 -0.04121,-0.358155 -0.276059,-0.03939 -0.276058,-0.03939 -0.0609,0.23475 c -0.03349,0.129113 -0.03625,0.308009 -0.0061,0.397547 l 0.05477,0.162798 h 0.323392 0.323392 z m -5.750468,-0.06512 c 0.165707,-0.265251 0.160079,-0.468174 -0.01706,-0.615188 l -0.166491,-0.138174 -0.201794,0.07743 c -0.110987,0.04259 -0.236641,0.168244 -0.27923,0.279231 l -0.07744,0.201794 0.148432,0.17885 c 0.18508,0.223008 0.459653,0.230433 0.593581,0.01605 z m 77.535476,-0.170484 v -0.187671 h -0.19536 c -0.219103,0 -0.22798,0.02392 -0.11659,0.314195 l 0.0788,0.205261 0.1166,-0.07206 c 0.0641,-0.03963 0.11659,-0.156509 0.11659,-0.259728 z m 5.99094,-0.138499 v -0.17941 h -0.18767 c -0.10322,0 -0.22563,0.06141 -0.27202,0.136475 l -0.0843,0.136475 0.0782,0.203788 0.0782,0.203788 0.19381,-0.160853 c 0.1066,-0.08847 0.19382,-0.241587 0.19382,-0.340263 z m -3.0741,0.134432 0.0795,-0.20711 -0.0732,-0.118485 c -0.0403,-0.06517 -0.12838,-0.118485 -0.19578,-0.118485 h -0.12256 v 0.325595 0.325595 h 0.11631 c 0.064,0 0.15207,-0.0932 0.19578,-0.20711 z m 1.43219,0.0011 c 0.1117,-0.29109 0.1029,-0.314943 -0.1163,-0.314943 h -0.19536 v 0.260476 0.260476 h 0.11631 c 0.064,0 0.15187,-0.0927 0.19535,-0.206009 z m -2.80326,-0.09901 0.14506,-0.174781 -0.0857,-0.08569 c -0.0471,-0.04713 -0.16383,-0.0857 -0.25934,-0.0857 h -0.17365 v 0.260476 0.260476 h 0.11429 c 0.0629,0 0.17956,-0.07865 0.25934,-0.174781 z m -2.091231,-0.442354 -0.0436,-0.226421 -0.226421,-0.04361 -0.22642,-0.0436 v 0.194053 0.194053 l 0.162797,0.06569 c 0.08954,0.03613 0.21105,0.07032 0.270025,0.07597 l 0.107228,0.01028 z m 1.306761,-0.09241 0.045,-0.232123 -0.17524,0.05835 -0.17523,0.05835 -0.045,0.232124 -0.045,0.232123 0.17524,-0.05835 0.17523,-0.05835 z m 1.48096,-0.09576 -0.15412,-0.154115 -0.0834,0.08338 -0.0834,0.08338 0.0855,0.222752 0.0855,0.222751 0.15202,-0.152015 0.15201,-0.152016 z m 1.53464,0.154115 v -0.260476 h -0.19536 -0.19536 v 0.184503 0.184504 l 0.1628,0.06569 c 0.0895,0.03613 0.17745,0.07032 0.19536,0.07597 0.0179,0.0057 0.0326,-0.106932 0.0326,-0.250193 z m 1.49773,-0.108532 c 0,-0.08357 -0.0586,-0.15504 -0.13024,-0.158824 l -0.13023,-0.0069 -0.045,0.217235 -0.045,0.217236 0.17524,-0.05841 c 0.0964,-0.03213 0.17523,-0.126787 0.17523,-0.210356 z m -77.6218,-0.488734 v -0.375952 l -0.24175,-0.04656 -0.24175,-0.04656 -0.123614,0.123613 -0.123613,0.123614 0.08573,0.34157 0.08573,0.341571 0.279634,-0.04268 0.279635,-0.04268 z m -4.126403,-0.216721 0.04121,-0.358155 h -0.326559 -0.326559 l -0.08121,0.131404 -0.08121,0.131403 0.08471,0.266903 0.08471,0.266902 0.28185,-0.04015 0.281849,-0.04015 z m 1.386237,-0.48268 0.230558,-0.254763 -0.209973,-0.209973 -0.209973,-0.209973 -0.260875,0.0828 -0.260876,0.0828 v 0.225652 c 0,0.500945 0.377973,0.651605 0.711139,0.28346 z m 1.686576,0.0429 0.0813,-0.211864 -0.148432,-0.17885 -0.148432,-0.178849 h -0.230595 -0.230595 l -0.07497,0.195357 -0.07497,0.195356 0.07497,0.195357 0.07497,0.195357 h 0.297727 0.297727 z M 30.045187,46.64196 c 0.02221,-0.150357 0.119393,-0.338952 0.215967,-0.419101 l 0.175589,-0.145726 -0.319291,-0.31929 -0.31929,-0.319291 -0.385069,0.284694 c -0.450811,0.333299 -0.48492,0.494458 -0.124592,0.588686 l 0.260475,0.06812 v 0.22358 c 0,0.27139 0.130775,0.41853 0.317455,0.357182 l 0.138378,-0.04547 z m 78.818683,-1.824914 c 0,-0.055 -0.14863,-0.318735 -0.33029,-0.586071 l -0.33029,-0.486065 h -2.53494 -2.53495 v -1.88845 -1.88845 h 1.3675 1.3675 l -8.4e-4,-0.09768 c -4.6e-4,-0.05372 -0.23826,-0.374664 -0.52843,-0.713202 l -0.52759,-0.615524 -0.74139,0.408172 c -1.25029,0.688344 -2.94974,1.723405 -3.0586,1.862859 l -0.10317,0.132158 0.0399,1.384687 0.0399,1.384687 -2.737924,0.05307 -2.737928,0.05306 -0.812929,0.501769 c -0.447111,0.275973 -0.812929,0.522742 -0.812929,0.548376 0,0.02563 3.369906,0.04661 7.48868,0.04661 h 7.48868 z M 27.035768,44.631494 c 0.401756,-0.171297 0.812714,-0.600764 0.817219,-0.854025 l 0.0029,-0.162797 h -0.23957 -0.239571 l -0.157451,-0.345568 -0.157451,-0.345567 -0.196434,0.280448 -0.196434,0.280449 h -0.31821 -0.31821 v 0.125165 c 0,0.06884 0.122785,0.239555 0.272854,0.379366 l 0.272854,0.254202 -0.08627,0.271823 -0.08627,0.271823 H 26.5386 c 0.07309,0 0.296813,-0.06989 0.497168,-0.155319 z m 5.613745,-0.105157 c -0.02141,-0.03581 0.08919,-0.245054 0.245791,-0.464975 0.156598,-0.219922 0.302888,-0.483654 0.325088,-0.586071 l 0.04037,-0.186214 -0.223402,-0.0015 -0.223403,-0.0015 -0.183367,-0.250769 -0.183367,-0.250769 -0.08753,0.275771 -0.08753,0.275771 -0.384811,0.08452 -0.38481,0.08452 v 0.109238 c 0,0.06008 0.03544,0.201606 0.07877,0.314499 l 0.07877,0.205261 0.138723,-0.08574 0.138724,-0.08574 -0.08378,0.218332 -0.08378,0.218333 0.323598,-0.08122 0.323597,-0.08122 -0.08559,0.223054 -0.08559,0.223055 0.221239,-0.04577 c 0.121682,-0.02517 0.20372,-0.07507 0.182307,-0.110888 z M 29.93969,42.24407 v -0.183089 l 0.260476,-0.139402 0.260476,-0.139402 v -0.255894 -0.255894 h -0.125165 c -0.06884,0 -0.23001,-0.112466 -0.358154,-0.249925 l -0.23299,-0.249926 -0.420754,0.376077 -0.420754,0.376077 0.07653,0.199443 0.07653,0.199444 h 0.184646 0.184646 l 0.126771,0.333432 0.126771,0.333432 0.130481,-0.08064 c 0.07176,-0.04435 0.130482,-0.163032 0.130482,-0.26373 z m 75.40776,20.336798 -0.71631,-0.152975 -0.61095,-0.421165 -0.61095,-0.421164 -0.41561,-0.844225 -0.41561,-0.844226 0.0619,-0.964368 0.0619,-0.964367 0.34349,-0.586112 0.34348,-0.586111 0.42583,-0.35992 c 0.2342,-0.197956 0.68956,-0.478636 1.0119,-0.623734 l 0.58607,-0.263814 0.84654,0.0063 0.84655,0.0063 0.50185,0.220413 0.50186,0.220412 0.63155,0.59075 0.63156,0.59075 0.2334,0.606578 0.23339,0.606579 -0.0105,0.781428 -0.0105,0.781427 -0.33533,0.65119 -0.33533,0.651189 -0.43491,0.416602 -0.4349,0.416602 -0.58607,0.251549 c -0.32234,0.138351 -0.8205,0.282065 -1.10702,0.319364 l -0.52095,0.06782 z"
       id="path1"
       inkscape:export-filename="logo.png"
       inkscape:export-xdpi="96"
       inkscape:export-ydpi="96" /></g></svg>
